<?xml version="1.0"?>
<svg xmlns="http://www.w3.org/2000/svg" viewBox="0 0 24 24">
    <path d="M 8.21875 2.0625 C 8.0509462 2.0407741 7.8859442 2.0613174 7.71875 2.09375 C 6.3811965 2.3532111 5.6105591 4.3000374 6.03125 6.46875 C 6.4519409 8.6374626 7.8811965 10.196961 9.21875 9.9375 C 10.556304 9.6780389 11.295691 7.6999626 10.875 5.53125 C 10.506895 3.6336265 9.3933767 2.2145815 8.21875 2.0625 z M 15.78125 2.0625 C 14.606624 2.2145816 13.493105 3.6336265 13.125 5.53125 C 12.704309 7.6999626 13.443697 9.678039 14.78125 9.9375 C 16.118803 10.196961 17.548059 8.6374626 17.96875 6.46875 C 18.389441 4.3000374 17.618803 2.353211 16.28125 2.09375 C 16.114056 2.0613174 15.949054 2.0407741 15.78125 2.0625 z M 3.71875 8.96875 C 3.3684946 8.9885878 3.0233267 9.0803099 2.75 9.28125 C 1.6566932 10.08501 1.7933876 12.09746 3.03125 13.78125 C 4.269113 15.465041 6.1566932 16.17876 7.25 15.375 C 8.3433069 14.57124 8.237863 12.558791 7 10.875 C 6.0716032 9.6121575 4.7695161 8.9092366 3.71875 8.96875 z M 20.25 8.96875 C 19.186641 8.9000313 17.89725 9.612 16.96875 10.875 C 15.73075 12.559 15.8585 14.67025 16.9375 15.53125 C 17.8595 16.26725 19.762 15.52675 21 13.84375 C 22.238 12.16075 22.33075 10.1305 21.21875 9.3125 C 20.9405 9.108 20.604453 8.9916563 20.25 8.96875 z M 12 12 C 10.481 12 9.25 13.346 9.25 15 C 9.25 16.496 6.5 17.41375 6.5 19.21875 C 6.5 20.75275 7.8235 22 9.4375 22 C 9.9615 22 10.42175 21.856 10.84375 21.625 C 11.31575 21.367 12.648 21.367 13.125 21.625 C 13.55 21.854 14.0365 22 14.5625 22 C 16.1885 22 17.5 20.75275 17.5 19.21875 C 17.5 17.55275 14.75 16.241 14.75 15 C 14.75 13.346 13.519 12 12 12 z"/>
</svg>
