<?xml version="1.0" standalone="no"?>
<!DOCTYPE svg PUBLIC "-//W3C//DTD SVG 20010904//EN"
 "http://www.w3.org/TR/2001/REC-SVG-20010904/DTD/svg10.dtd">
<svg version="1.0" xmlns="http://www.w3.org/2000/svg"
 width="700.000000pt" height="700.000000pt" viewBox="0 0 700.000000 700.000000"
 preserveAspectRatio="xMidYMid meet">
<metadata>
Created by potrace 1.14, written by Peter Selinger 2001-2017
</metadata>
<g transform="translate(0.000000,700.000000) scale(0.100000,-0.100000)"
fill="#000000" stroke="none">
<path d="M3329 6996 c-2 -2 -31 -7 -63 -10 -229 -25 -527 -138 -740 -281 -99
-67 -124 -86 -214 -170 -64 -58 -1783 -1777 -1857 -1856 -214 -228 -362 -528
-431 -873 -20 -102 -27 -412 -11 -531 18 -135 51 -267 100 -395 68 -179 146
-317 262 -465 78 -101 1888 -1921 1999 -2011 242 -197 505 -320 809 -379 126
-25 478 -31 567 -10 14 3 41 8 60 11 19 2 43 7 52 10 9 2 25 7 37 9 40 7 177
47 206 60 17 7 66 28 110 46 104 44 261 138 367 222 73 57 1811 1782 1968
1954 97 105 176 218 249 356 40 74 117 259 126 302 2 11 9 36 15 55 6 19 13
46 16 60 12 63 24 128 30 155 14 65 12 399 -2 495 -49 325 -175 612 -376 857
-89 109 -1930 1945 -2023 2018 -146 114 -281 191 -460 260 -115 44 -248 80
-380 101 -44 7 -410 15 -416 10z m671 -1470 c14 -3 45 -9 70 -12 25 -3 52 -7
60 -9 8 -2 31 -7 50 -10 281 -47 648 -216 885 -409 345 -280 608 -691 714
-1118 44 -173 59 -306 56 -493 -3 -200 -15 -291 -60 -466 -165 -640 -637
-1172 -1243 -1403 -149 -57 -349 -109 -467 -121 -33 -4 -69 -9 -80 -13 -11 -3
-514 -6 -1117 -7 l-1098 -1 -1 56 c0 67 0 1914 1 1953 l0 27 507 -2 507 -3 -1
-503 -1 -502 546 1 c301 0 576 5 612 10 367 53 687 316 813 669 44 122 57 209
53 360 -5 152 -7 168 -36 265 -113 366 -423 642 -797 709 -60 11 -208 14 -632
15 l-554 1 19 -22 c10 -12 44 -47 74 -79 30 -31 114 -119 186 -196 73 -76 160
-168 195 -204 35 -37 134 -140 219 -229 85 -90 179 -188 208 -218 28 -30 52
-57 52 -61 0 -3 -216 -6 -481 -6 l-480 1 -477 476 c-262 262 -489 489 -504
505 l-27 28 412 2 c227 0 455 2 507 2 l95 1 -508 508 -508 508 1103 -2 c607
-1 1114 -4 1128 -8z"/>
</g>
</svg>
