<?xml version="1.0" encoding="utf-8"?>
<!-- Generator: Adobe Illustrator 19.0.0, SVG Export Plug-In . SVG Version: 6.00 Build 0)  -->
<svg version="1.1" id="Layer_1" xmlns="http://www.w3.org/2000/svg" xmlns:xlink="http://www.w3.org/1999/xlink" x="0px" y="0px"
	 viewBox="0 0 512 512" style="enable-background:new 0 0 512 512;" xml:space="preserve">
<style type="text/css">
	.st0{fill:#C75C5C;}
	.st1{fill:#A65050;}
	.st2{fill:#F5CF87;}
</style>
<g id="XMLID_1_">
	<path id="XMLID_3_" class="st0" d="M256,0c141,0,256,115,256,256S397,512,256,512S0,397,0,256S115,0,256,0"/>
	<path id="XMLID_4_" class="st1" d="M256,103.2c-7.9,0-15,4.7-18.9,11.8l-41,82.7l-90.6,12.6c-7.9,0.8-14.2,6.3-16.5,14.2
		c-2.4,7.9-0.8,15.8,5.5,21.3l65.4,63.8l-15,89.8c-1.6,7.9,1.6,15.8,7.9,20.5c3.9,2.4,7.9,3.9,11.8,3.9c3.2,0,6.3-0.8,9.5-2.4
		l81.9-41.7l81.1,42.5c3.2,1.6,6.3,2.4,9.5,2.4c3.9,0,8.7-1.6,11.8-3.9c6.3-4.7,9.5-12.6,7.9-20.5l-14.2-90.6l65.4-63.8
		c5.5-4.7,7.9-13.4,5.5-20.5c-2.4-7.9-8.7-12.6-16.5-14.2l-90.6-12.6l-41-82.7C271.8,107.9,263.9,103.2,256,103.2"/>
	<path id="XMLID_5_" class="st2" d="M423,208.7c-2.4-7.9-8.7-12.6-16.5-14.2L315.9,182l-41-82.7c-3.2-7.1-11-11.8-18.9-11.8
		s-15,4.7-18.9,11.8l-41,82.7l-90.6,12.6c-7.9,0.8-14.2,6.3-16.5,14.2c-2.4,7.9-0.8,15.8,5.5,21.3l65.4,63.8l-15,89.8
		c-1.6,7.9,1.6,15.8,7.9,20.5c3.9,2.4,7.9,3.9,11.8,3.9c3.2,0,6.3-0.8,9.5-2.4l81.9-41.7l81.1,42.5c3.2,1.6,6.3,2.4,9.5,2.4
		c3.9,0,8.7-1.6,11.8-3.9c6.3-4.7,9.5-12.6,7.9-20.5l-14.2-90.6l65.4-63.8C423,224.5,425.4,215.8,423,208.7z"/>
</g>
</svg>
