<?xml version="1.0" encoding="utf-8"?>
<!-- Generator: Adobe Illustrator 21.0.0, SVG Export Plug-In . SVG Version: 6.00 Build 0)  -->
<svg version="1.1" id="Layer_1" xmlns="http://www.w3.org/2000/svg" xmlns:xlink="http://www.w3.org/1999/xlink" x="0px" y="0px"
	 viewBox="0 0 512 512" style="enable-background:new 0 0 512 512;" xml:space="preserve">
<g>
	<path d="M256,12.5l-16.2,36.8l-58,130L40.2,194.4L0,198.8l30.1,26.8L135.5,321L106,460.4l-8.4,39l35.1-20.1L256,408l123.3,71.4
		l35.1,20.1l-8.4-39L376.5,321l105.4-95.4l30.1-26.8l-40.2-4.5l-141.7-15.1l-58-130L256,12.5z M256,100.1l45.7,103.2l4.5,9.5l10,1.1
		l112.1,11.7l-83.7,75.3l-7.8,7.3l2.2,10l23.4,109.9l-97.6-55.8l-8.9-5.6l-8.9,5.6l-97.6,55.8l23.4-109.9l2.2-10l-7.8-7.3
		l-83.7-75.3l112.1-11.7l10-1.1l4.5-9.5L256,100.1z"/>
</g>
</svg>
