<?xml version="1.0" encoding="utf-8"?>
<!-- Generator: Adobe Illustrator 24.0.1, SVG Export Plug-In . SVG Version: 6.00 Build 0)  -->
<svg version="1.1" id="Слой_1" xmlns="http://www.w3.org/2000/svg" xmlns:xlink="http://www.w3.org/1999/xlink" x="0px" y="0px"
	 viewBox="0 0 50 50" style="enable-background:new 0 0 50 50;" xml:space="preserve">
<path d="M39,48c-2.7,2.6-5.7,2.2-8.6,1c-3-1.3-5.8-1.3-9,0c-4,1.7-6.1,1.2-8.5-1C-0.6,34,1.4,12.8,16.8,12c3.7,0.2,6.4,2.1,8.6,2.2
	c3.3-0.7,6.4-2.6,9.9-2.3c4.2,0.3,7.4,2,9.5,5c-8.7,5.2-6.6,16.6,1.3,19.8C44.5,40.8,42.5,45,39,48L39,48z M25.1,11.8
	C24.7,5.6,29.7,0.5,35.5,0C36.3,7.2,29,12.5,25.1,11.8z"/>
</svg>
