<svg version="1.1" xmlns="http://www.w3.org/2000/svg" xmlns:xlink="http://www.w3.org/1999/xlink" viewBox="0 0 350 310">
<style type="text/css">
	.st0{opacity:0.18;fill:#4292E6;enable-background:new;}
	.st1{fill:#4292E6;}
	.st2{fill:none;stroke:#4292E6;stroke-miterlimit:10;}
	.st3{fill:#FFFFFF;}
	.st4{fill:#FF6A55;}
	.st5{fill:#FF8159;}
	.st6{fill:#FFBD6E;}
	.st7{fill:#E1E1E1;}
	.st8{fill:#B9B9B9;}
	.st9{fill:#253E6E;}
	.st10{fill:#FFB469;}
	.st11{fill:#1F2D48;}
	.st12{fill:#3F5D95;}
	.st13{fill:#4774D7;}
	.st14{fill:#A661B2;}
	.st15{fill:#B76BC4;}
	.st16{fill:#FFCC6C;}
	.st17{fill:#FFD172;}
	.st18{fill:none;stroke:#FFB469;stroke-linecap:round;stroke-miterlimit:10;}
	.st19{fill:#BFBFBF;}
	.st20{fill:#CECECE;}
	.st21{fill:none;stroke:#FF8159;stroke-width:2;stroke-miterlimit:10;}
	.gr1 {animation: anim1 6s infinite;}
	.gr2 {animation: anim2 4s infinite;}
	.gr3 {animation: anim3 4s infinite;}
	@keyframes anim1 {
		50%{transform: translateX(10px);}
	}
	@keyframes anim2 {
		50%{transform: translateY(5px);}
	}
	@keyframes anim3 {
		50%{transform: translateY(-5px);}
	}
</style>
<g class="gr1">
	<path class="st0" d="M54.3,229.5H5.6c-3.1,0-5.6-2.5-5.6-5.6v-48.4c0-3.1,2.5-5.6,5.6-5.6h48.8c3.1,0,5.6,2.5,5.6,5.6v48.4
		C60,227,57.4,229.5,54.3,229.5z"/>
	<path class="st0" d="M334.4,117h-48.8c-3.1,0-5.6-2.5-5.6-5.6V63c0-3.1,2.5-5.6,5.6-5.6h48.8c3.1,0,5.6,2.5,5.6,5.6v48.4
		C340,114.5,337.5,117,334.4,117z"/>
	<path class="st0" d="M268.5,271.7h-48.8c-3.1,0-5.6-2.5-5.6-5.6v-48.4c0-3.1,2.5-5.6,5.6-5.6h48.8c3.1,0,5.6,2.5,5.6,5.6v48.4
		C274.1,269.2,271.6,271.7,268.5,271.7z"/>
	<path class="st0" d="M111.4,100.4H62.7c-3.1,0-5.6-2.5-5.6-5.6V46.4c0-3.1,2.5-5.6,5.6-5.6h48.7c3.1,0,5.6,2.5,5.6,5.6v48.4
		C117.1,97.9,114.6,100.4,111.4,100.4z"/>
</g>
<g class="gr2">
	<g>
		<g>
			<path class="st1" d="M145.8,285.3h-3.9v6.8h3.9c0.9,0,1.6-0.7,1.6-1.6v-3.6C147.4,286,146.7,285.3,145.8,285.3z"/>
			<path class="st1" d="M258.4,246.7v-3.9h-6.9v3.9c0,0.9,0.7,1.6,1.6,1.6h3.6C257.6,248.3,258.4,247.6,258.4,246.7z"/>
			<path class="st2" d="M144.7,288.7h99.8c5.8,0,10.5-4.7,10.5-10.5v-35.5"/>
		</g>
		<g>
			<ellipse class="st1" cx="213.8" cy="288.7" rx="9.5" ry="9.5"/>
			<path class="st3" d="M216.2,283.8L216.2,283.8c-0.1-0.1-0.1-0.2-0.2-0.4c0,0,0,0-0.1-0.1s-0.1-0.2-0.2-0.3c0,0,0,0-0.1-0.1
				c-0.2-0.2-0.4-0.3-0.7-0.5h-0.1c-0.1,0-0.2-0.1-0.3-0.1h-0.1c-0.1,0-0.3,0-0.4,0h-0.5c-0.1,0-0.3,0-0.4,0H213
				c-0.1,0-0.2,0.1-0.3,0.1h-0.1c-0.3,0.1-0.5,0.3-0.7,0.5c0,0,0,0-0.1,0.1s-0.1,0.2-0.2,0.3c0,0,0,0-0.1,0.1s-0.1,0.2-0.2,0.4l0,0
				c-0.1,0.3-0.2,0.6-0.2,0.9v1.4c0,0.2,0.2,0.4,0.4,0.4s0.4-0.2,0.4-0.4v-1.4c0-0.2,0-0.4,0.1-0.6c0.1-0.1,0.1-0.2,0.2-0.3
				c0,0,0-0.1,0.1-0.1c0.1-0.1,0.2-0.2,0.3-0.2l0,0c0.1-0.1,0.2-0.1,0.3-0.1h0.1c0.1,0,0.3-0.1,0.4-0.1h0.5c0.1,0,0.3,0,0.4,0.1h0.1
				c0.1,0,0.2,0.1,0.3,0.1l0,0c0.1,0.1,0.2,0.2,0.3,0.2c0,0,0,0.1,0.1,0.1c0.1,0.1,0.1,0.2,0.2,0.3c0.1,0.2,0.1,0.4,0.1,0.6v1.4
				c0,0.2,0.2,0.4,0.4,0.4s0.4-0.2,0.4-0.4v-1.4C216.4,284.3,216.3,284,216.2,283.8z"/>
			<path class="st3" d="M213.8,291.7c-0.2,0-0.4-0.2-0.4-0.4v-1.4c0-0.2,0.2-0.4,0.4-0.4s0.4,0.2,0.4,0.4v1.4
				C214.3,291.5,214.1,291.7,213.8,291.7z"/>
			<path class="st3" d="M216.1,294.5h-4.5c-1.1,0-2-0.9-2-2V288c0-1.1,0.9-2,2-2h4.5c1.1,0,2,0.9,2,2v4.5
				C218.1,293.5,217.2,294.5,216.1,294.5z M211.6,286.7c-0.7,0-1.2,0.5-1.2,1.2v4.5c0,0.7,0.5,1.2,1.2,1.2h4.5
				c0.7,0,1.2-0.5,1.2-1.2v-4.5c0-0.7-0.5-1.2-1.2-1.2H211.6z"/>
			<path class="st3" d="M214.7,289.8c0,0.5-0.4,0.9-0.9,0.9s-0.9-0.4-0.9-0.9s0.4-0.9,0.9-0.9S214.7,289.3,214.7,289.8z"/>
		</g>
		<g>
			<g>
				<path class="st4" d="M133.6,282.4h-17.2c-0.9,0-1.6-0.7-1.6-1.6v-17.1c0-0.9,0.7-1.6,1.6-1.6h17.2c0.9,0,1.6,0.7,1.6,1.6v17.1
					C135.2,281.7,134.5,282.4,133.6,282.4z"/>
				<path class="st5" d="M133.7,282.4c0.9,0,1.6-0.7,1.6-1.6v-17.2c0-0.6-0.4-1.2-0.9-1.4c-7.1,11.1-14.9,16.3-19.5,18.5v0.1
					c0,0.9,0.7,1.6,1.6,1.6H133.7z"/>
			</g>
			<g>
				<path class="st3" d="M119.4,276.5h5.6c0.5,0,0.7-0.5,0.5-0.9l-2.8-4.1c-0.2-0.3-0.7-0.3-0.9,0l-2.8,4.1
					C118.7,276,119,276.5,119.4,276.5z"/>
				<path class="st3" d="M124.6,276.5h5.6c0.5,0,0.7-0.5,0.5-0.9l-2.8-4.1c-0.2-0.3-0.7-0.3-0.9,0l-2.8,4.1
					C123.9,276,124.2,276.5,124.6,276.5z"/>
				<path class="st3" d="M125.8,269.1c0,0.6-0.5,1.1-1.1,1.1s-1.1-0.5-1.1-1.1s0.5-1.1,1.1-1.1S125.8,268.5,125.8,269.1z"/>
			</g>
		</g>
		<path class="st6" d="M131.1,273.6l-2.2,2.3h-18.2c-1.4,0-2.6,1.2-2.6,2.6v18.9c0,1.4,1.2,2.6,2.6,2.6l28.7-0.1
			c1.4,0,2.6-1.2,2.6-2.6l-0.1-19.3v-2.2v-1.3c0-0.8-0.6-1.4-1.4-1.4h-8.4C131.7,273.2,131.3,273.3,131.1,273.6z"/>
	</g>
	<g>
		<g>
			<path class="st1" d="M170.7,40h-3.9v-6.8h3.9c0.9,0,1.6,0.7,1.6,1.6v3.6C172.4,39.3,171.6,40,170.7,40z"/>
			<path class="st1" d="M235.2,72.2v3.9h-6.8v-3.9c0-0.9,0.7-1.6,1.6-1.6h3.6C234.4,70.6,235.2,71.3,235.2,72.2z"/>
			<path class="st2" d="M169.6,36.6h51.7c5.8,0,10.5,4.7,10.5,10.5v29"/>
		</g>
		<g>
			<ellipse class="st1" cx="228.3" cy="39.1" rx="9.5" ry="9.5"/>
			<path class="st3" d="M230.7,34.2L230.7,34.2c-0.1-0.1-0.1-0.2-0.2-0.4c0,0,0,0-0.1-0.1s-0.1-0.2-0.2-0.3c0,0,0,0-0.1-0.1
				c-0.2-0.2-0.4-0.3-0.7-0.5h-0.1c-0.1,0-0.2-0.1-0.3-0.1h-0.1c-0.1,0-0.3,0-0.4,0H228c-0.1,0-0.3,0-0.4,0h-0.1
				c-0.1,0-0.2,0.1-0.3,0.1h-0.1c-0.3,0.1-0.5,0.3-0.7,0.5c0,0,0,0-0.1,0.1s-0.1,0.2-0.2,0.3c0,0,0,0-0.1,0.1s-0.1,0.2-0.2,0.4l0,0
				c-0.1,0.3-0.2,0.6-0.2,0.9v1.4c0,0.2,0.2,0.4,0.4,0.4s0.4-0.2,0.4-0.4v-1.4c0-0.2,0-0.4,0.1-0.6c0.1-0.1,0.1-0.2,0.2-0.3
				c0,0,0-0.1,0.1-0.1c0.1-0.1,0.2-0.2,0.3-0.2l0,0c0.1-0.1,0.2-0.1,0.3-0.1h0.1c0.1,0,0.3-0.1,0.4-0.1h0.5c0.1,0,0.3,0,0.4,0.1h0.1
				c0.1,0,0.2,0.1,0.3,0.1l0,0c0.1,0.1,0.2,0.2,0.3,0.2c0,0,0,0.1,0.1,0.1c0.1,0.1,0.1,0.2,0.2,0.3c0.1,0.2,0.1,0.4,0.1,0.6v1.4
				c0,0.2,0.2,0.4,0.4,0.4s0.4-0.2,0.4-0.4v-1.4C230.9,34.8,230.9,34.5,230.7,34.2z"/>
			<path class="st3" d="M228.4,42.1c-0.2,0-0.4-0.2-0.4-0.4v-1.4c0-0.2,0.2-0.4,0.4-0.4s0.4,0.2,0.4,0.4v1.4
				C228.8,42,228.6,42.1,228.4,42.1z"/>
			<path class="st3" d="M230.6,44.9h-4.5c-1.1,0-2-0.9-2-2v-4.5c0-1.1,0.9-2,2-2h4.5c1.1,0,2,0.9,2,2v4.5
				C232.7,44,231.7,44.9,230.6,44.9z M226.1,37.1c-0.7,0-1.2,0.5-1.2,1.2v4.5c0,0.7,0.5,1.2,1.2,1.2h4.5c0.7,0,1.2-0.5,1.2-1.2v-4.5
				c0-0.7-0.5-1.2-1.2-1.2H226.1z"/>
			<path class="st3" d="M229.2,40.2c0,0.5-0.4,0.9-0.9,0.9s-0.9-0.4-0.9-0.9s0.4-0.9,0.9-0.9C228.8,39.4,229.2,39.7,229.2,40.2z"/>
		</g>
		<g>
			<path class="st7" d="M155,6.7h-15.8c-1.1,0-2.1,0.9-2.1,2.1v25.5c0,1.1,0.9,2.1,2.1,2.1h19.4c1.1,0,2.1-0.9,2.1-2.1V12.1L155,6.7
				z"/>
			<path class="st8" d="M155,6.7l5.7,5.4H156c-0.6,0-1-0.5-1-1V6.7z"/>
			<path class="st1" d="M155.6,28h-13.5c-0.2,0-0.3-0.1-0.3-0.3l0,0c0-0.2,0.1-0.3,0.3-0.3h13.5c0.2,0,0.3,0.1,0.3,0.3l0,0
				C156,27.9,155.8,28,155.6,28z"/>
			<path class="st1" d="M155.6,24.3h-13.5c-0.2,0-0.3-0.1-0.3-0.3l0,0c0-0.2,0.1-0.3,0.3-0.3h13.5c0.2,0,0.3,0.1,0.3,0.3l0,0
				C156,24.2,155.8,24.3,155.6,24.3z"/>
			<path class="st1" d="M155.6,20.6h-13.5c-0.2,0-0.3-0.1-0.3-0.3l0,0c0-0.2,0.1-0.3,0.3-0.3h13.5c0.2,0,0.3,0.1,0.3,0.3l0,0
				C156,20.5,155.8,20.6,155.6,20.6z"/>
			<path class="st1" d="M155.6,16.9h-13.5c-0.2,0-0.3-0.1-0.3-0.3l0,0c0-0.2,0.1-0.3,0.3-0.3h13.5c0.2,0,0.3,0.1,0.3,0.3l0,0
				C156,16.8,155.8,16.9,155.6,16.9z"/>
			<path class="st1" d="M152.3,31.3h-10.1c-0.2,0-0.3-0.1-0.3-0.3l0,0c0-0.2,0.1-0.3,0.3-0.3h10.1c0.2,0,0.3,0.1,0.3,0.3l0,0
				C152.6,31.1,152.5,31.3,152.3,31.3z"/>
		</g>
		<path class="st6" d="M156,23.1l-2.2,2.3h-18.2c-1.4,0-2.6,1.2-2.6,2.6v18.9c0,1.4,1.2,2.6,2.6,2.6l28.7-0.1c1.4,0,2.6-1.2,2.6-2.6
			l-0.1-19.3v-2.2V24c0-0.8-0.6-1.4-1.4-1.4H157C156.6,22.6,156.3,22.8,156,23.1z"/>
	</g>
	<g>
		<path class="st9" d="M296.7,242.7H57.8c-3.1,0-5.6-2.5-5.6-5.6V81.7c0-3.1,2.5-5.6,5.6-5.6h238.9c3.1,0,5.6,2.5,5.6,5.6v155.4
			C302.3,240.2,299.8,242.7,296.7,242.7z"/>
		<g>
			<circle class="st4" cx="291.8" cy="86.1" r="2.3"/>
			<path class="st10" d="M284.3,86.1c0,1.2-1,2.3-2.3,2.3c-1.2,0-2.3-1-2.3-2.3c0-1.2,1-2.3,2.3-2.3
				C283.2,83.9,284.3,84.9,284.3,86.1z"/>
			<path class="st1" d="M274.5,86.1c0,1.2-1,2.3-2.3,2.3c-1.2,0-2.3-1-2.3-2.3c0-1.2,1-2.3,2.3-2.3
				C273.5,83.9,274.5,84.9,274.5,86.1z"/>
		</g>
		<g>
			<path class="st9" d="M116.8,158.2H68c-3.1,0-5.6-2.5-5.6-5.6v-48.4c0-3.1,2.5-5.6,5.6-5.6h48.8c3.1,0,5.6,2.5,5.6,5.6v48.4
				C122.4,155.7,119.9,158.2,116.8,158.2z"/>
			<path class="st11" d="M64.8,155.9v-50.4c0-2.6,2.1-4.6,4.6-4.6h50.8c0.7,0,1.3,0.1,1.8,0.4c-0.7-1.6-2.3-2.8-4.2-2.8H67
				c-2.6,0-4.6,2.1-4.6,4.6v50.4c0,1.9,1.2,3.5,2.8,4.3C64.9,157.2,64.8,156.6,64.8,155.9z"/>
			<path class="st12" d="M119.8,99c0.5,0.7,0.8,1.6,0.8,2.5v50.4c0,2.6-2.1,4.6-4.6,4.6H65.2c-0.7,0-1.4-0.2-2-0.5
				c0.8,1.3,2.3,2.1,3.9,2.1h50.8c2.6,0,4.6-2.1,4.6-4.6v-50.4C122.4,101.3,121.4,99.7,119.8,99z"/>
		</g>
		<g>
			<path class="st9" d="M188.1,227.4h-48.8c-3.1,0-5.6-2.5-5.6-5.6v-48.4c0-3.1,2.5-5.6,5.6-5.6h48.8c3.1,0,5.6,2.5,5.6,5.6v48.4
				C193.7,224.8,191.2,227.4,188.1,227.4z"/>
			<path class="st11" d="M136,225.1v-50.4c0-2.6,2.1-4.6,4.6-4.6h50.9c0.7,0,1.3,0.1,1.8,0.4c-0.7-1.6-2.3-2.8-4.2-2.8h-50.8
				c-2.6,0-4.6,2.1-4.6,4.6v50.4c0,1.9,1.2,3.5,2.8,4.3C136.2,226.4,136,225.8,136,225.1z"/>
			<path class="st12" d="M191.1,168.2c0.5,0.7,0.8,1.6,0.8,2.5v50.4c0,2.6-2.1,4.6-4.6,4.6h-50.8c-0.7,0-1.4-0.2-2-0.5
				c0.8,1.3,2.3,2.1,3.9,2.1h50.8c2.6,0,4.6-2.1,4.6-4.6v-50.4C193.7,170.5,192.6,168.9,191.1,168.2z"/>
		</g>
		<g>
			<g>
				<path class="st13" d="M117.2,227.4H68.4c-3.1,0-5.6-2.5-5.6-5.6v-48.4c0-3.1,2.5-5.6,5.6-5.6h48.8c3.1,0,5.6,2.5,5.6,5.6v48.4
					C122.8,224.8,120.3,227.4,117.2,227.4z"/>
				<path class="st1" d="M118.2,227.4c2.6,0,4.6-2.1,4.6-4.6v-50.4c0-1.9-1.1-3.5-2.8-4.2c-20.9,32.5-43.7,47.7-57.3,54.4v0.2
					c0,2.6,2.1,4.6,4.6,4.6L118.2,227.4L118.2,227.4z"/>
			</g>
			<path class="st3" d="M103.2,200.7l-1.7-1c-0.1-0.1-0.2-0.2-0.1-0.3c0-0.3,0-0.6,0-0.9c0-0.6-0.1-1.1-0.2-1.7c0-0.1,0-0.2,0.1-0.3
				l1.4-0.8c0.6-0.3,0.8-1.1,0.4-1.7l-1.9-3.4c-0.3-0.6-1.1-0.8-1.7-0.4l-1.5,0.9c-0.1,0.1-0.2,0-0.3,0c-0.7-0.6-1.5-1-2.4-1.4
				c-0.1,0-0.2-0.1-0.2-0.3V188c0-0.7-0.5-1.2-1.2-1.2H90c-0.7,0-1.2,0.5-1.2,1.2v1.4c0,0.1-0.1,0.2-0.2,0.3c-1,0.4-1.9,0.9-2.7,1.6
				c-0.1,0.1-0.2,0.1-0.3,0l-0.9-0.5c-0.6-0.3-1.3-0.1-1.7,0.4l-1.9,3.4c-0.3,0.6-0.1,1.3,0.4,1.7l1,0.6c0.1,0.1,0.2,0.2,0.1,0.3
				c-0.1,0.4-0.1,0.8-0.1,1.3c0,0.7,0.1,1.4,0.2,2c0,0.1,0,0.3-0.1,0.3l-0.8,0.4c-0.6,0.3-0.8,1.1-0.4,1.7l1.9,3.4
				c0.3,0.6,1.1,0.8,1.7,0.4l1.1-0.7c0.1-0.1,0.2,0,0.3,0c0.8,0.6,1.8,1.1,2.8,1.4c0.1,0,0.2,0.1,0.2,0.3v1.1c0,0.7,0.5,1.2,1.2,1.2
				h3.9c0.7,0,1.2-0.5,1.2-1.2v-1.7c0-0.1,0.1-0.2,0.2-0.3c0.8-0.4,1.6-0.9,2.3-1.5c0.1-0.1,0.2-0.1,0.3,0l1.3,0.8
				c0.6,0.3,1.3,0.1,1.7-0.4l1.9-3.4C104,201.8,103.8,201,103.2,200.7z M92.4,203.2c-2.5,0-4.6-2.1-4.6-4.6s2.1-4.6,4.6-4.6
				s4.6,2.1,4.6,4.6S94.9,203.2,92.4,203.2z"/>
		</g>
		<g>
			<path class="st14" d="M189,122.7h-50.7c-2.6,0-4.7-2.1-4.7-4.7v-14.3c0-2.6,2.1-4.7,4.7-4.7H189c2.6,0,4.7,2.1,4.7,4.7V118
				C193.7,120.6,191.6,122.7,189,122.7z"/>
			<path class="st15" d="M193.7,118.1v-14.5c0-1.6-0.9-3.1-2.2-3.9c-19.2,13.7-46.3,18.1-57.8,19.3c0.4,2.1,2.3,3.7,4.5,3.7H189
				C191.6,122.7,193.7,120.6,193.7,118.1z"/>
			<path class="st16" d="M193.7,102.2"/>
			<circle class="st3" cx="145.8" cy="111" r="6.9"/>
			<path class="st3" d="M186.2,107.7h-26.9c-0.4,0-0.7-0.3-0.7-0.7l0,0c0-0.4,0.3-0.7,0.7-0.7h26.9c0.4,0,0.7,0.3,0.7,0.7l0,0
				C186.9,107.4,186.6,107.7,186.2,107.7z"/>
			<path class="st3" d="M186.2,112.2h-26.9c-0.4,0-0.7-0.3-0.7-0.7l0,0c0-0.4,0.3-0.7,0.7-0.7h26.9c0.4,0,0.7,0.3,0.7,0.7l0,0
				C186.9,111.9,186.6,112.2,186.2,112.2z"/>
			<path class="st3" d="M179.6,116.7h-20.2c-0.4,0-0.7-0.3-0.7-0.7l0,0c0-0.4,0.3-0.7,0.7-0.7h20.2c0.4,0,0.7,0.3,0.7,0.7l0,0
				C180.2,116.4,179.9,116.7,179.6,116.7z"/>
		</g>
		<g>
			<path class="st10" d="M189,157.6h-50.7c-2.6,0-4.7-2.1-4.7-4.7v-14.3c0-2.6,2.1-4.7,4.7-4.7H189c2.6,0,4.7,2.1,4.7,4.7v14.3
				C193.7,155.5,191.6,157.6,189,157.6z"/>
			<path class="st17" d="M193.7,153v-14.5c0-1.6-0.9-3.1-2.2-3.9c-19.2,13.7-46.3,18.1-57.8,19.3c0.4,2.1,2.3,3.7,4.5,3.7H189
				C191.6,157.6,193.7,155.5,193.7,153z"/>
			<path class="st16" d="M193.7,137"/>
			<path class="st3" d="M152.7,145.9c0,3.8-3.1,6.9-6.9,6.9c-3.8,0-6.9-3.1-6.9-6.9s3.1-6.9,6.9-6.9
				C149.6,138.9,152.7,142,152.7,145.9z"/>
			<path class="st3" d="M186.2,142.6h-26.9c-0.4,0-0.7-0.3-0.7-0.7l0,0c0-0.4,0.3-0.7,0.7-0.7h26.9c0.4,0,0.7,0.3,0.7,0.7l0,0
				C186.9,142.3,186.6,142.6,186.2,142.6z"/>
			<path class="st3" d="M186.2,147.1h-26.9c-0.4,0-0.7-0.3-0.7-0.7l0,0c0-0.4,0.3-0.7,0.7-0.7h26.9c0.4,0,0.7,0.3,0.7,0.7l0,0
				C186.9,146.8,186.6,147.1,186.2,147.1z"/>
			<path class="st3" d="M179.6,151.6h-20.2c-0.4,0-0.7-0.3-0.7-0.7l0,0c0-0.4,0.3-0.7,0.7-0.7h20.2c0.4,0,0.7,0.3,0.7,0.7l0,0
				C180.2,151.3,179.9,151.6,179.6,151.6z"/>
		</g>
		<g>
			<path class="st10" d="M279.5,223.4h-50.7c-2.6,0-4.7-2.1-4.7-4.7v-14.3c0-2.6,2.1-4.7,4.7-4.7h50.7c2.6,0,4.7,2.1,4.7,4.7v14.3
				C284.2,221.3,282.1,223.4,279.5,223.4z"/>
			<path class="st17" d="M284.2,218.8v-14.5c0-1.6-0.9-3.1-2.2-3.9c-19.2,13.7-46.3,18.1-57.8,19.3c0.4,2.1,2.3,3.7,4.5,3.7h50.8
				C282.2,223.4,284.2,221.3,284.2,218.8z"/>
			<path class="st16" d="M284.2,202.9"/>
			<circle class="st3" cx="236.3" cy="211.7" r="6.9"/>
			<path class="st3" d="M276.8,208.4h-26.9c-0.4,0-0.7-0.3-0.7-0.7l0,0c0-0.4,0.3-0.7,0.7-0.7h26.9c0.4,0,0.7,0.3,0.7,0.7l0,0
				C277.4,208.1,277.1,208.4,276.8,208.4z"/>
			<path class="st3" d="M276.8,212.9h-26.9c-0.4,0-0.7-0.3-0.7-0.7l0,0c0-0.4,0.3-0.7,0.7-0.7h26.9c0.4,0,0.7,0.3,0.7,0.7l0,0
				C277.4,212.6,277.1,212.9,276.8,212.9z"/>
			<path class="st3" d="M270.1,217.4h-20.2c-0.4,0-0.7-0.3-0.7-0.7l0,0c0-0.4,0.3-0.7,0.7-0.7h20.2c0.4,0,0.7,0.3,0.7,0.7l0,0
				C270.7,217.1,270.5,217.4,270.1,217.4z"/>
		</g>
		<g>
			<path class="st13" d="M225.6,187h-15.7c-0.9,0-1.6-0.7-1.6-1.6v-15.6c0-0.9,0.7-1.6,1.6-1.6h15.7c0.9,0,1.6,0.7,1.6,1.6v15.6
				C227.2,186.2,226.5,187,225.6,187z"/>
			<path class="st1" d="M225.8,187c0.8,0,1.5-0.7,1.5-1.5v-15.9c0-0.6-0.4-1.1-0.9-1.3c-6.6,10.2-13.8,15-18,17.1v0.1
				c0,0.8,0.7,1.5,1.5,1.5L225.8,187L225.8,187z"/>
			<path class="st3" d="M217.5,179.8l2.2-2.2c0.1-0.1,0.2-0.1,0.4-0.1c1,0.3,2.2,0.1,3-0.6c0.6-0.6,0.9-1.3,0.9-2.1
				c0-0.3-0.4-0.5-0.6-0.3l-1,1c-0.3,0.3-0.5,0.3-0.6,0.1l-1.6-1.6c-0.1-0.1-0.1-0.4,0-0.5l1.1-1.1c0.2-0.2,0.1-0.6-0.3-0.6
				c-0.7,0-1.5,0.3-2,0.9c-0.8,0.8-1.1,2-0.7,3c0,0.1,0,0.3-0.1,0.4l-2.2,2.2c-0.1,0.1-0.2,0.1-0.4,0.1c-1-0.3-2.2-0.1-3,0.6
				c-0.6,0.6-0.9,1.3-0.9,2.1c0,0.3,0.4,0.5,0.6,0.3l1.1-1.1c0.1-0.1,0.4-0.1,0.5,0l1.6,1.6c0.1,0.1,0.1,0.4,0,0.5l-1.1,1.1
				c-0.2,0.2-0.1,0.6,0.3,0.6c0.7,0,1.5-0.3,2-0.9c0.8-0.8,1.1-2,0.7-3C217.3,180,217.4,179.9,217.5,179.8z"/>
		</g>
		<g>
			<g>
				<path class="st7" d="M243.2,100h-30.7c-2.2,0-4,1.8-4,4v49.8c0,2.2,1.8,4,4,4h37.8c2.2,0,4-1.8,4-4v-43.3L243.2,100z"/>
				<path class="st3" d="M243.2,98.1h-30.7c-2.2,0-4,1.8-4,4v49.8c0,2.2,1.8,4,4,4h37.8c2.2,0,4-1.8,4-4v-43.3L243.2,98.1z"/>
				<path class="st7" d="M243.2,98.1l11.1,10.5h-9.1c-1.1,0-2-0.9-2-2V98.1z"/>
				<path class="st1" d="M244.4,139.6h-26.3c-0.4,0-0.7-0.3-0.7-0.7l0,0c0-0.4,0.3-0.7,0.7-0.7h26.3c0.4,0,0.7,0.3,0.7,0.7l0,0
					C245.1,139.3,244.8,139.6,244.4,139.6z"/>
				<path class="st1" d="M244.4,132.4h-26.3c-0.4,0-0.7-0.3-0.7-0.7l0,0c0-0.4,0.3-0.7,0.7-0.7h26.3c0.4,0,0.7,0.3,0.7,0.7l0,0
					C245.1,132.1,244.8,132.4,244.4,132.4z"/>
				<path class="st1" d="M244.4,125.2h-26.3c-0.4,0-0.7-0.3-0.7-0.7l0,0c0-0.4,0.3-0.7,0.7-0.7h26.3c0.4,0,0.7,0.3,0.7,0.7l0,0
					C245.1,124.9,244.8,125.2,244.4,125.2z"/>
				<path class="st1" d="M244.4,118h-26.3c-0.4,0-0.7-0.3-0.7-0.7l0,0c0-0.4,0.3-0.7,0.7-0.7h26.3c0.4,0,0.7,0.3,0.7,0.7l0,0
					C245.1,117.7,244.8,118,244.4,118z"/>
				<path class="st1" d="M237.9,145.9h-19.8c-0.4,0-0.7-0.3-0.7-0.7l0,0c0-0.4,0.3-0.7,0.7-0.7h19.8c0.4,0,0.7,0.3,0.7,0.7l0,0
					C238.6,145.7,238.3,145.9,237.9,145.9z"/>
				<circle class="st1" cx="214.4" cy="104.5" r="2.5"/>
			</g>
			<g>
				<path class="st18" d="M239.6,98.1v6.7c0,1.3-0.5,3.2-3,3.2c-2.6,0-3-1.9-3-3.2V94.5"/>
				<path class="st18" d="M239.6,102.9v-6.7c0-0.9-0.7-2-2-2c-1.4,0-2,1.1-2,2v5.2"/>
				<path class="st18" d="M235.5,99.2v4.8c0,0.5-0.1,1.7,1.1,1.7c1.3,0,1.2-1.2,1.2-1.7v-5.9"/>
			</g>
		</g>
		<g>
			<g>
				<path class="st7" d="M273.2,130.2h-30.7c-2.2,0-4,1.8-4,4V184c0,2.2,1.8,4,4,4h37.8c2.2,0,4-1.8,4-4v-43.3L273.2,130.2z"/>
				<path class="st3" d="M273.2,128.3h-30.7c-2.2,0-4,1.8-4,4v49.8c0,2.2,1.8,4,4,4h37.8c2.2,0,4-1.8,4-4v-43.3L273.2,128.3z"/>
				<path class="st7" d="M273.2,128.3l11.1,10.5h-9.1c-1.1,0-2-0.9-2-2V128.3z"/>
				<path class="st1" d="M274.5,169.8h-26.3c-0.4,0-0.7-0.3-0.7-0.7l0,0c0-0.4,0.3-0.7,0.7-0.7h26.3c0.4,0,0.7,0.3,0.7,0.7l0,0
					C275.1,169.5,274.9,169.8,274.5,169.8z"/>
				<path class="st1" d="M274.5,162.6h-26.3c-0.4,0-0.7-0.3-0.7-0.7l0,0c0-0.4,0.3-0.7,0.7-0.7h26.3c0.4,0,0.7,0.3,0.7,0.7l0,0
					C275.1,162.3,274.9,162.6,274.5,162.6z"/>
				<path class="st1" d="M274.5,155.4h-26.3c-0.4,0-0.7-0.3-0.7-0.7l0,0c0-0.4,0.3-0.7,0.7-0.7h26.3c0.4,0,0.7,0.3,0.7,0.7l0,0
					C275.1,155.1,274.9,155.4,274.5,155.4z"/>
				<path class="st1" d="M274.5,148.1h-26.3c-0.4,0-0.7-0.3-0.7-0.7l0,0c0-0.4,0.3-0.7,0.7-0.7h26.3c0.4,0,0.7,0.3,0.7,0.7l0,0
					C275.1,147.9,274.9,148.1,274.5,148.1z"/>
				<path class="st1" d="M267.9,176.1h-19.8c-0.4,0-0.7-0.3-0.7-0.7l0,0c0-0.4,0.3-0.7,0.7-0.7h19.8c0.4,0,0.7,0.3,0.7,0.7l0,0
					C268.6,175.8,268.3,176.1,267.9,176.1z"/>
				<path class="st1" d="M247,134.7c0,1.4-1.1,2.5-2.5,2.5s-2.5-1.1-2.5-2.5s1.1-2.5,2.5-2.5S247,133.3,247,134.7z"/>
			</g>
			<g>
				<path class="st18" d="M270,129.3v6.7c0,1.3-0.5,3.2-3,3.2c-2.6,0-3-1.9-3-3.2v-10.2"/>
				<path class="st18" d="M270,134.1v-6.7c0-0.9-0.7-2-2-2c-1.4,0-2,1.1-2,2v5.2"/>
				<path class="st18" d="M265.9,130.4v4.8c0,0.5-0.1,1.7,1.1,1.7c1.3,0,1.2-1.2,1.2-1.7v-5.9"/>
			</g>
		</g>
		<g>
			<path class="st3" d="M282.3,113h-19.1c-1.1,0-1.9-0.9-1.9-1.9v-10.8c0-1.1,0.9-1.9,1.9-1.9h19.1c1.1,0,1.9,0.9,1.9,1.9v10.8
				C284.2,112.1,283.4,113,282.3,113z"/>
			<path class="st19" d="M282.9,98.4h-20.3c-0.6,0-1,0.3-1.2,0.8l10.6,9.6c0.5,0.4,1.1,0.4,1.6,0l10.6-9.6
				C283.9,98.7,283.5,98.4,282.9,98.4z"/>
			<path class="st3" d="M282.9,98.4h-20.3c-0.6,0-1,0.3-1.2,0.8l10.6,8.2c0.5,0.4,1.1,0.4,1.6,0l10.6-8.2
				C283.9,98.7,283.5,98.4,282.9,98.4z"/>
		</g>
	</g>
	<g>
		<g>
			<path class="st1" d="M306.2,108.2h-3.9v-6.8h3.9c0.9,0,1.6,0.7,1.6,1.6v3.6C307.8,107.5,307.1,108.2,306.2,108.2z"/>
			<path class="st1" d="M330.8,247v3.9H324V247c0-0.9,0.7-1.6,1.6-1.6h3.6C330.1,245.4,330.8,246.1,330.8,247z"/>
			<path class="st2" d="M305.1,104.8H317c5.8,0,10.5,4.7,10.5,10.5V251"/>
		</g>
		<g>
			<path class="st20" d="M337.9,267.1h-21.1c-1.1,0-1.9-0.9-1.9-1.9v-12c0-1.1,0.9-1.9,1.9-1.9h21.1c1.1,0,1.9,0.9,1.9,1.9v12
				C339.8,266.3,339,267.1,337.9,267.1z"/>
			<path class="st7" d="M338.4,251.3h-22c-0.6,0-1.1,0.4-1.3,0.9l11.5,10.5c0.5,0.4,1.2,0.4,1.7,0l11.5-10.5
				C339.5,251.7,339,251.3,338.4,251.3z"/>
			<path class="st7" d="M338.4,251.3h-22c-0.6,0-1.1,0.4-1.3,0.9l11.5,8.9c0.5,0.4,1.2,0.4,1.7,0l11.5-8.9
				C339.5,251.7,339,251.3,338.4,251.3z"/>
		</g>
		<path class="st6" d="M333.5,262.6l-2.2,2.3h-18.2c-1.4,0-2.6,1.2-2.6,2.6v18.9c0,1.4,1.2,2.6,2.6,2.6l28.7-0.1
			c1.4,0,2.6-1.2,2.6-2.6l-0.1-19.3v-2.2v-1.3c0-0.8-0.6-1.4-1.4-1.4h-8.4C334.1,262.2,333.8,262.4,333.5,262.6z"/>
	</g>
	<g>
		<g>
			<path class="st1" d="M35.9,38.9V35h-6.8v3.9c0,0.9,0.7,1.6,1.6,1.6h3.6C35.2,40.5,35.9,39.7,35.9,38.9z"/>
			<path class="st1" d="M97.2,72.2v3.9h6.8v-3.9c0-0.9-0.7-1.6-1.6-1.6h-3.6C97.9,70.6,97.2,71.3,97.2,72.2z"/>
			<path class="st2" d="M32.5,37.7v8.7c0,5.8,4.7,10.5,10.5,10.5h48c5.3,0,9.6,4.3,9.6,9.6V74"/>
		</g>
		<g>
			<path class="st9" d="M45.9,34.9H19.1c-2.2,0-4.1-1.8-4.1-4.1V19.3c0-2.2,1.8-4.1,4.1-4.1h26.8c2.2,0,4.1,1.8,4.1,4.1v11.6
				C50,33.1,48.2,34.9,45.9,34.9z"/>
			<path class="st4" d="M19.9,21.7h-0.8c-0.5,0-0.9-0.4-0.9-0.9v-0.3c0-0.5,0.4-0.9,0.9-0.9h0.8c0.5,0,0.9,0.4,0.9,0.9v0.3
				C20.9,21.2,20.5,21.7,19.9,21.7z"/>
			<path class="st4" d="M30.8,21.7H30c-0.5,0-0.9-0.4-0.9-0.9v-0.3c0-0.5,0.4-0.9,0.9-0.9h0.8c0.5,0,0.9,0.4,0.9,0.9v0.3
				C31.7,21.2,31.3,21.7,30.8,21.7z"/>
			<path class="st10" d="M26.3,21.7h-2.8c-0.5,0-0.9-0.4-0.9-0.9v-0.3c0-0.5,0.4-0.9,0.9-0.9h2.8c0.5,0,0.9,0.4,0.9,0.9v0.3
				C27.3,21.2,26.8,21.7,26.3,21.7z"/>
			<path class="st4" d="M44.8,21.7h-9.5c-0.5,0-0.9-0.4-0.9-0.9v-0.3c0-0.5,0.4-0.9,0.9-0.9h9.5c0.5,0,0.9,0.4,0.9,0.9v0.3
				C45.7,21.2,45.3,21.7,44.8,21.7z"/>
			<path class="st10" d="M19.9,30.7h-0.8c-0.5,0-0.9-0.4-0.9-0.9v-0.3c0-0.5,0.4-0.9,0.9-0.9h0.8c0.5,0,0.9,0.4,0.9,0.9v0.3
				C20.9,30.2,20.5,30.7,19.9,30.7z"/>
			<path class="st10" d="M45.9,30.7h-0.8c-0.5,0-0.9-0.4-0.9-0.9v-0.3c0-0.5,0.4-0.9,0.9-0.9h0.8c0.5,0,0.9,0.4,0.9,0.9v0.3
				C46.8,30.2,46.4,30.7,45.9,30.7z"/>
			<path class="st4" d="M26.3,30.7h-2.8c-0.5,0-0.9-0.4-0.9-0.9v-0.3c0-0.5,0.4-0.9,0.9-0.9h2.8c0.5,0,0.9,0.4,0.9,0.9v0.3
				C27.3,30.2,26.8,30.7,26.3,30.7z"/>
			<path class="st10" d="M40.9,30.7h-8c-0.5,0-0.9-0.4-0.9-0.9v-0.3c0-0.5,0.4-0.9,0.9-0.9h8c0.5,0,0.9,0.4,0.9,0.9v0.3
				C41.9,30.2,41.4,30.7,40.9,30.7z"/>
			<path class="st10" d="M19.9,26.1h-0.8c-0.5,0-0.9-0.4-0.9-0.9v-0.3c0-0.5,0.4-0.9,0.9-0.9h0.8c0.5,0,0.9,0.4,0.9,0.9v0.3
				C20.9,25.7,20.5,26.1,19.9,26.1z"/>
			<path class="st4" d="M24.1,26.1h-0.8c-0.5,0-0.9-0.4-0.9-0.9v-0.3c0-0.5,0.4-0.9,0.9-0.9h0.8c0.5,0,0.9,0.4,0.9,0.9v0.3
				C25.1,25.7,24.7,26.1,24.1,26.1z"/>
			<path class="st10" d="M32.8,26.1H28c-0.5,0-0.9-0.4-0.9-0.9v-0.3c0-0.5,0.4-0.9,0.9-0.9h4.8c0.5,0,0.9,0.4,0.9,0.9v0.3
				C33.8,25.7,33.4,26.1,32.8,26.1z"/>
		</g>
		<g>
			<path class="st9" d="M45.9,13.2H19.1c-2.2,0-4.1-1.8-4.1-4.1v-5C15,1.9,16.8,0,19.1,0h26.8C48.1,0,50,1.8,50,4.1v5.1
				C50,11.4,48.2,13.2,45.9,13.2z"/>
			<path class="st10" d="M19.9,10h-0.8c-0.5,0-0.9-0.4-0.9-0.9V8.8c0-0.5,0.4-0.9,0.9-0.9h0.8c0.5,0,0.9,0.4,0.9,0.9V9
				C20.9,9.6,20.5,10,19.9,10z"/>
			<path class="st10" d="M45.9,10h-0.8c-0.5,0-0.9-0.4-0.9-0.9V8.8c0-0.5,0.4-0.9,0.9-0.9h0.8c0.5,0,0.9,0.4,0.9,0.9V9
				C46.8,9.6,46.4,10,45.9,10z"/>
			<path class="st4" d="M26.3,10h-2.8c-0.5,0-0.9-0.4-0.9-0.9V8.8c0-0.5,0.4-0.9,0.9-0.9h2.8c0.5,0,0.9,0.4,0.9,0.9V9
				C27.3,9.6,26.8,10,26.3,10z"/>
			<path class="st10" d="M40.9,10h-8C32.4,10,32,9.6,32,9.1V8.8c0-0.5,0.4-0.9,0.9-0.9h8c0.5,0,0.9,0.4,0.9,0.9V9
				C41.9,9.6,41.4,10,40.9,10z"/>
			<path class="st10" d="M19.9,5.4h-0.8c-0.5,0-0.9-0.4-0.9-0.9V4.2c0-0.5,0.4-0.9,0.9-0.9h0.8c0.5,0,0.9,0.4,0.9,0.9v0.3
				C20.9,5,20.5,5.4,19.9,5.4z"/>
			<path class="st4" d="M24.1,5.4h-0.8c-0.5,0-0.9-0.4-0.9-0.9V4.2c0-0.5,0.4-0.9,0.9-0.9h0.8c0.5,0,0.9,0.4,0.9,0.9v0.3
				C25.1,5,24.7,5.4,24.1,5.4z"/>
			<path class="st10" d="M32.8,5.4H28c-0.5,0-0.9-0.4-0.9-0.9V4.2c0-0.5,0.4-0.9,0.9-0.9h4.8c0.5,0,0.9,0.4,0.9,0.9v0.3
				C33.8,5,33.4,5.4,32.8,5.4z"/>
		</g>
	</g>
</g>
<g class="gr3">
	<g>
		<g>
			<path class="st14" d="M210.3,256.6h-48.8c-3.1,0-5.6-2.5-5.6-5.6v-48.4c0-3.1,2.5-5.6,5.6-5.6h48.8c3.1,0,5.6,2.5,5.6,5.6V251
				C215.9,254,213.4,256.6,210.3,256.6z"/>
			<path class="st15" d="M211.3,256.6c2.6,0,4.6-2.1,4.6-4.6v-50.4c0-1.9-1.1-3.5-2.8-4.2c-20.9,32.5-43.7,47.7-57.3,54.4v0.2
				c0,2.6,2.1,4.6,4.6,4.6H211.3z"/>
		</g>
		<g>
			<path class="st3" d="M168.2,230.4c-0.3-0.1-0.5-0.3-0.7-0.6s-0.3-0.6-0.3-0.9c0-0.3,0.1-0.6,0.3-0.9c0.2-0.3,0.5-0.5,0.8-0.6
				l10-4.1c0.1,0,0.2,0,0.2,0c0.3,0,0.5,0.2,0.7,0.5s0.3,0.6,0.3,1s-0.2,0.7-0.5,0.8l-8.6,3.5l8.7,3.7c0.3,0.1,0.4,0.4,0.4,0.8
				c0,0.3-0.1,0.7-0.3,1s-0.4,0.5-0.7,0.5c-0.1,0-0.1,0-0.2,0L168.2,230.4z"/>
			<path class="st3" d="M182.9,236.4c-0.2-0.2-0.3-0.4-0.3-0.7c0-0.2,0-0.4,0.1-0.6l5.7-16.9c0.1-0.3,0.2-0.5,0.4-0.7
				s0.4-0.3,0.7-0.3s0.6,0.1,0.8,0.3s0.3,0.4,0.3,0.8c0,0.2,0,0.4-0.1,0.6l-5.8,17.1c-0.2,0.5-0.5,0.7-1,0.7
				C183.4,236.7,183.2,236.6,182.9,236.4z"/>
			<path class="st3" d="M193.8,234.8c-0.2,0-0.5-0.2-0.7-0.5s-0.3-0.6-0.3-1s0.1-0.6,0.4-0.8l8.7-3.7l-8.6-3.5
				c-0.4-0.1-0.6-0.4-0.6-0.8c0-0.3,0.1-0.6,0.3-1c0.2-0.3,0.5-0.5,0.7-0.5c0,0,0.1,0,0.2,0l10,4.1c0.4,0.2,0.7,0.4,0.8,0.6
				c0.2,0.3,0.3,0.6,0.3,0.9c0,0.3-0.1,0.6-0.2,0.9c-0.2,0.3-0.4,0.5-0.7,0.6l-10.2,4.4C194,234.8,193.9,234.8,193.8,234.8z"/>
		</g>
	</g>
	<g>
		<path class="st1" d="M285.7,45c0.1,0,9.5,0,9.5,0H317h8.3c5.2,0,9.4-4.2,9.4-9.4s-4.2-9.4-9.4-9.4c-0.1,0-0.2,0-0.2,0
			C323.7,17,315.7,10,306.2,10c-7.5,0-14.1,4.4-17.2,10.7c-1-0.3-2.1-0.4-3.3-0.4c-6.8,0-12.4,5.5-12.4,12.4S278.8,45,285.7,45z"/>
		<g>
			<path class="st3" d="M310.8,34.1h-11.9c-0.4,0-0.7-0.5-0.5-0.8l6-9.9c0.2-0.3,0.7-0.3,0.9,0l6,9.9
				C311.5,33.6,311.3,34.1,310.8,34.1z"/>
			<path class="st3" d="M304.4,37.7h0.9c0.5,0,0.9-0.4,0.9-0.9v-8.3c0-0.5-0.4-0.9-0.9-0.9h-0.9c-0.5,0-0.9,0.4-0.9,0.9v8.3
				C303.5,37.3,303.9,37.7,304.4,37.7z"/>
		</g>
	</g>
	<g>
		<path class="st1" d="M17.9,295.7c0.1,0,9.5,0,9.5,0h21.8h8.3c5.2,0,9.4-4.2,9.4-9.4c0-5.2-4.2-9.4-9.4-9.4c-0.1,0-0.2,0-0.2,0
			c-1.4-9.2-9.4-16.2-18.9-16.2c-7.5,0-14.1,4.4-17.2,10.7c-1-0.3-2.1-0.4-3.3-0.4c-6.8,0-12.4,5.5-12.4,12.4
			C5.5,290.2,11.1,295.7,17.9,295.7z"/>
		<g>
			<path class="st3" d="M31.2,277.5h11.9c0.4,0,0.7,0.5,0.5,0.8l-6,9.9c-0.2,0.3-0.7,0.3-0.9,0l-6-9.9
				C30.5,277.9,30.8,277.5,31.2,277.5z"/>
			<path class="st3" d="M37.6,273.9h-0.9c-0.5,0-0.9,0.4-0.9,0.9v8.3c0,0.5,0.4,0.9,0.9,0.9h0.9c0.5,0,0.9-0.4,0.9-0.9v-8.3
				C38.6,274.3,38.1,273.9,37.6,273.9z"/>
		</g>
	</g>
	<g>
		<g>
			<path class="st4" d="M75.5,145.6H26.8c-3.1,0-5.6-2.5-5.6-5.6V91.6c0-3.1,2.5-5.6,5.6-5.6h48.7c3.1,0,5.6,2.5,5.6,5.6V140
				C81.2,143.1,78.7,145.6,75.5,145.6z"/>
			<path class="st5" d="M76.5,145.6c2.6,0,4.6-2.1,4.6-4.6V90.6c0-1.9-1.1-3.5-2.8-4.2c-20.9,32.5-43.7,47.7-57.3,54.4v0.2
				c0,2.6,2.1,4.6,4.6,4.6H76.5z"/>
			<path class="st21" d="M79.2,149.3H23.1c-3.1,0-5.6-2.5-5.6-5.6V87.9c0-3.1,2.5-5.6,5.6-5.6h56.2c3.1,0,5.6,2.5,5.6,5.6v55.7
				C84.9,146.8,82.4,149.3,79.2,149.3z"/>
		</g>
		<g>
			<path class="st3" d="M34.7,128.3H51c1.3,0,2.1-1.5,1.4-2.6l-8.2-12c-0.7-1-2.1-1-2.7,0l-8.2,12C32.6,126.9,33.4,128.3,34.7,128.3
				z"/>
			<path class="st3" d="M50.1,128.3h16.3c1.3,0,2.1-1.5,1.4-2.6l-8.2-12c-0.7-1-2.1-1-2.7,0l-8.2,12
				C47.9,126.9,48.7,128.3,50.1,128.3z"/>
			<path class="st3" d="M53.5,106.4c0,1.7-1.4,3.1-3.1,3.1c-1.7,0-3.1-1.4-3.1-3.1s1.4-3.1,3.1-3.1
				C52.1,103.2,53.5,104.7,53.5,106.4z"/>
		</g>
		<g>
			<path class="st3" d="M92.8,141.2l-12.3,12.3c-0.4,0.4-1.2,0.2-1.3-0.4l-4.1-16.4c-0.1-0.6,0.4-1.1,1-0.9l16.3,4.1
				C93.1,140,93.3,140.8,92.8,141.2z"/>
			<path class="st3" d="M92.9,155.1l1.6-1.6c0.4-0.4,0.4-1,0-1.3l-9.2-9.2c-0.4-0.4-1-0.4-1.3,0l-1.6,1.6c-0.4,0.4-0.4,1,0,1.3
				l9.2,9.2C91.9,155.4,92.5,155.4,92.9,155.1z"/>
		</g>
	</g>
</g>
</svg>
