<svg version="1.1" xmlns="http://www.w3.org/2000/svg" xmlns:xlink="http://www.w3.org/1999/xlink" x="0px" y="0px" viewBox="0 0 510 400">
<style type="text/css">
	.st0{opacity:0.6;fill:#ffffff;}
	.st1{fill:#5E3892;}
	.st2{fill:url(#SVGID_1_);}
	.st3{fill:url(#SVGID_2_);}
	.st4{fill:url(#SVGID_3_);}
	.st5{fill:url(#SVGID_4_);}
	.st6{fill:url(#SVGID_5_);}
	.st7{fill:url(#SVGID_6_);}
	.st8{fill:#F4008C;}
	.st9{fill:#5360FF;}
	.st10{fill:#391BDB;}
	.st11{fill:url(#SVGID_7_);}
	.st12{opacity:0.5;fill:url(#SVGID_8_);}
	.st13{opacity:0.5;fill:url(#SVGID_9_);}
	.st14{fill:url(#SVGID_10_);}
	.st15{fill:url(#SVGID_11_);}
	.st16{opacity:0.76;fill:url(#SVGID_12_);}
	.st17{opacity:0.76;fill:url(#SVGID_13_);}
	.st18{opacity:0.76;fill:url(#SVGID_14_);}
	.st19{fill:#F6796F;}
	.st20{fill:url(#SVGID_15_);}
	.st21{opacity:0.5;fill:url(#SVGID_16_);}
	.st22{fill:url(#SVGID_17_);}
	.st23{opacity:0.5;fill:url(#SVGID_18_);}
	.st24{fill:url(#SVGID_19_);}
	.st25{fill:url(#SVGID_20_);}
	.st26{fill:#B83568;}
	.st27{fill:#E26A70;}
	.st28{fill:url(#SVGID_21_);}
	.st29{opacity:0.6;fill:url(#SVGID_22_);}
	.st30{fill:url(#SVGID_23_);}
	.st31{fill:#D46A70;}
	.st32{opacity:0.91;fill:url(#SVGID_24_);}
	.st33{fill:url(#SVGID_25_);}
	.st34{opacity:0.6;fill:url(#SVGID_26_);}
	.st35{fill:url(#SVGID_27_);}
	.st36{fill:url(#SVGID_28_);}
	.st37{opacity:0.91;fill:url(#SVGID_29_);}
	.st38{opacity:0.5;fill:url(#SVGID_30_);}
	.st39{opacity:0.5;fill:url(#SVGID_31_);}
	.st40{opacity:0.5;fill:url(#SVGID_32_);}
	.st41{opacity:0.5;fill:url(#SVGID_33_);}
	.st42{opacity:0.5;fill:url(#SVGID_34_);}
	.st43{opacity:0.5;fill:url(#SVGID_35_);}
	.st44{opacity:0.5;fill:url(#SVGID_36_);}
	.st45{opacity:0.5;fill:url(#SVGID_37_);}
	.st46{opacity:0.5;fill:url(#SVGID_38_);}
	.st47{opacity:0.76;fill:url(#SVGID_39_);}
	.st48{opacity:0.5;fill:url(#SVGID_40_);}
	.st49{opacity:0.3;fill:url(#SVGID_41_);}
	.st50{opacity:0.5;fill:url(#SVGID_42_);}
	.st51{opacity:0.5;fill:url(#SVGID_43_);}
	.st52{opacity:0.5;fill:url(#SVGID_44_);}
	.st53{opacity:0.5;fill:url(#SVGID_45_);}
	.st54{fill:url(#SVGID_46_);}
	.st55{fill:#E5EAFF;}
	.st56{opacity:0.5;fill:url(#SVGID_47_);}
	.st57{opacity:0.3;fill:url(#SVGID_48_);}
	.st58{opacity:0.5;fill:url(#SVGID_49_);}
	.st59{opacity:0.5;fill:url(#SVGID_50_);}
	.st60{opacity:0.5;fill:url(#SVGID_51_);}
	.st61{opacity:0.5;fill:#6334B5;}
	.st62{fill:url(#SVGID_52_);}
	.st63{fill:url(#SVGID_53_);}
	.st64{fill:url(#SVGID_54_);}
	.st65{opacity:0.6;fill:url(#SVGID_55_);}
	.st66{fill:#29267D;}
	.st67{fill:url(#SVGID_56_);}
	.st68{fill:url(#SVGID_57_);}
	.st69{fill:#FCE4E8;}
	.st70{fill:#6D8BBE;}
	.st71{fill:#0E0B52;}
	.st72{fill:#FFFFFF;}
	.st73{fill:#B34D8B;}
	.st74{fill:#B9486B;}
	.st75{fill:#88357A;}
	.st76{fill:#F9AB9E;}
	.st77{opacity:0.6;fill:url(#SVGID_58_);}
	.st78{fill:url(#SVGID_59_);}
	.st79{fill:#C15B59;}
	.st80{opacity:0.6;fill:url(#SVGID_60_);}
	.st81{opacity:0.6;fill:url(#SVGID_61_);}
	.st82{opacity:0.5;fill:url(#SVGID_62_);}
	.st83{fill:url(#SVGID_63_);}
	.st84{fill:url(#SVGID_64_);}
	.st85{fill:url(#SVGID_65_);}
	.st86{opacity:0.8;fill:url(#SVGID_66_);}
	.st87{opacity:0.8;fill:url(#SVGID_67_);}
	.st88{fill:#38BBFF;}
	.st89{fill:url(#SVGID_68_);}
	.st90{fill:url(#SVGID_69_);}
	.st91{fill:url(#SVGID_70_);}
	.st92{fill:url(#SVGID_71_);}
	.st93{fill:url(#SVGID_72_);}
	.st94{fill:#DDD9FF;}
	.st95{fill:url(#SVGID_73_);}
	.st96{opacity:0.62;fill:url(#SVGID_74_);}
	.st97{opacity:0.62;fill:url(#SVGID_75_);}
	.st98{opacity:0.5;fill:url(#SVGID_76_);}
	.st99{opacity:0.6;fill:#3CC7F5;}
	.st100{opacity:0.6;fill:url(#SVGID_77_);}
	.st101{opacity:0.3;fill:url(#SVGID_78_);}
	.st102{opacity:0.3;fill:url(#SVGID_79_);}
	.st103{opacity:0.3;fill:url(#SVGID_80_);}
	.st104{opacity:0.3;fill:url(#SVGID_81_);}
	.st105{fill:#C5C8FA;}
	.st106{fill:url(#SVGID_82_);}
	.st107{fill:url(#SVGID_83_);}
	.st108{opacity:0.81;fill:url(#SVGID_84_);}
	.st109{fill:#352B92;}
	.st110{opacity:0.73;fill:url(#SVGID_85_);}
	.st111{fill:#7E2892;}
	.st112{opacity:0.73;fill:url(#SVGID_86_);}
	.st113{fill-rule:evenodd;clip-rule:evenodd;fill:url(#SVGID_87_);}
	.st114{fill-rule:evenodd;clip-rule:evenodd;fill:url(#SVGID_88_);}
	.st115{fill-rule:evenodd;clip-rule:evenodd;fill:url(#SVGID_89_);}
	.st116{fill-rule:evenodd;clip-rule:evenodd;fill:url(#SVGID_90_);}
	.st117{fill-rule:evenodd;clip-rule:evenodd;fill:url(#SVGID_91_);}
	.st118{fill-rule:evenodd;clip-rule:evenodd;fill:url(#SVGID_92_);}
	.st119{fill-rule:evenodd;clip-rule:evenodd;fill:url(#SVGID_93_);}
	.st120{opacity:0.5;fill-rule:evenodd;clip-rule:evenodd;fill:#4B0E28;}
	.st121{fill-rule:evenodd;clip-rule:evenodd;fill:#A5CFFF;}
	.st122{fill:#DAFFFF;}
	.gr1 {animation: anim1 6s infinite;}
	.gr2 {animation: anim2 4s infinite;}
	.gr3 {animation: anim3 4s infinite;}
	.gr4 {animation: anim4 4s infinite;}
	.gr5 {animation: anim5 4s infinite;}
	.gr6 {animation: anim6 4s infinite;}
	@keyframes anim1 {
		50%{transform: translateX(15px);}
	}
	@keyframes anim2 {
		50%{transform: translateY(5px);}
	}
	@keyframes anim3 {
		50%{transform: translateY(-5px);}
	}
	@keyframes anim4 {
		50%{transform: translateX(-5px);}
	}
	@keyframes anim5 {
		50%{transform: translateY(10px);}
	}
	@keyframes anim6 {
		50%{transform: translateY(3px);}
	}
</style>
<ellipse class="st0" cx="224.1" cy="174.7" rx="170.5" ry="170.8"/>
<g class='gr1'>
	<path class="st1" d="M310.8,55.5l-8.1-21.2l21,4.4L310.8,55.5z M303.5,35l7.4,19.4L322.7,39L303.5,35z"/>
	
		<rect x="366.1" y="351.2" transform="matrix(0.5918 -0.8061 0.8061 0.5918 -131.3821 443.4136)" class="st1" width="12" height="0.5"/>
	
		<rect x="298.2" y="255.8" transform="matrix(0.7801 -0.6257 0.6257 0.7801 -98.2284 244.3225)" class="st1" width="0.6" height="12.2"/>
	
		<rect x="58.6" y="318.5" transform="matrix(0.5878 -0.809 0.809 0.5878 -241.0561 182.7754)" class="st1" width="0.6" height="18.9"/>
	<polygon class="st1" points="53.4,335.6 52.9,335.3 64.3,320.3 64.8,320.6 	"/>
	<polygon class="st1" points="41.7,171.2 31.8,166 32.1,165.5 42,170.7 	"/>
	<polygon class="st1" points="421,37.9 420.6,37.5 432,24.5 432.4,24.9 	"/>
	<polygon class="st1" points="204,79.9 198.9,69.7 199.4,69.4 204.5,79.7 	"/>
	<polygon class="st1" points="118.6,253.6 118.2,253.2 131.3,242.2 131.7,242.6 	"/>
	<linearGradient id="SVGID_1_" gradientUnits="userSpaceOnUse" x1="474.5493" y1="84.109" x2="474.5493" y2="74.263">
		<stop  offset="0" style="stop-color:#3B8CFF"/>
		<stop  offset="1" style="stop-color:#9253FF"/>
	</linearGradient>
	<path class="st2" d="M479.5,79.2c0,2.7-2.2,4.9-4.9,4.9c-2.7,0-4.9-2.2-4.9-4.9c0-2.7,2.2-4.9,4.9-4.9
		C477.3,74.3,479.5,76.5,479.5,79.2z"/>
	<linearGradient id="SVGID_2_" gradientUnits="userSpaceOnUse" x1="20.8522" y1="199.4888" x2="20.8522" y2="187.2344">
		<stop  offset="0" style="stop-color:#3B8CFF"/>
		<stop  offset="1" style="stop-color:#9253FF"/>
	</linearGradient>
	<path class="st3" d="M27,193.4c0,3.4-2.7,6.1-6.1,6.1s-6.1-2.7-6.1-6.1s2.7-6.1,6.1-6.1S27,190,27,193.4z"/>
	<linearGradient id="SVGID_3_" gradientUnits="userSpaceOnUse" x1="488.9849" y1="84.109" x2="488.9849" y2="74.263">
		<stop  offset="0" style="stop-color:#9C007F"/>
		<stop  offset="1" style="stop-color:#F3006C"/>
	</linearGradient>
	<ellipse class="st4" cx="489" cy="79.2" rx="4.9" ry="4.9"/>
	<linearGradient id="SVGID_4_" gradientUnits="userSpaceOnUse" x1="180.2725" y1="116.5177" x2="180.2725" y2="109.5555">
		<stop  offset="0" style="stop-color:#9C007F"/>
		<stop  offset="1" style="stop-color:#F3006C"/>
	</linearGradient>
	<ellipse class="st5" cx="180.3" cy="113" rx="3.5" ry="3.5"/>
	<linearGradient id="SVGID_5_" gradientUnits="userSpaceOnUse" x1="413.0624" y1="270.1344" x2="413.0624" y2="263.1721">
		<stop  offset="0" style="stop-color:#6F2E90"/>
		<stop  offset="1" style="stop-color:#4F41B4"/>
	</linearGradient>
	<ellipse class="st6" cx="413.1" cy="266.7" rx="3.5" ry="3.5"/>
	<linearGradient id="SVGID_6_" gradientUnits="userSpaceOnUse" x1="51.7388" y1="304.4734" x2="51.7388" y2="298.2493">
		<stop  offset="0" style="stop-color:#6F2E90"/>
		<stop  offset="1" style="stop-color:#4F41B4"/>
	</linearGradient>
	<ellipse class="st7" cx="51.7" cy="301.4" rx="3.1" ry="3.1"/>
	<polygon class="st8" points="173.2,0 180.3,14.2 175.6,16.3 169,3.3 	"/>
	<polygon class="st9" points="14.3,329.8 20.9,337 23.4,334 17.3,327.2 	"/>
	<polygon class="st10" points="346.3,86.4 339.7,90.4 337,85.4 344.2,81.2 	"/>
	<polygon class="st10" points="378.6,339.5 369.2,346.2 366.6,341.2 375.7,335.8 	"/>
</g>
<g class='gr2'>
	<linearGradient id="SVGID_7_" gradientUnits="userSpaceOnUse" x1="236.4707" y1="399.9537" x2="236.4707" y2="301.6722">
		<stop  offset="0" style="stop-color:#4F41B4"/>
		<stop  offset="1" style="stop-color:#491C84"/>
	</linearGradient>
	<path class="st11" d="M309,400h-51.7c-5.4-30.1-18-69.3-18-69.3c-3.1-1.8-9,0.4-9,0.4L211.4,400h-47.2
		c-2.5-42.5,20.7-90.7,20.7-90.7l0,0c-0.1-0.2-0.8-1.6-0.6-2.6c0.1-0.4,0.9-1.2,1.8-2c1.3-1.2,2.8-2.3,2.8-2.3l88.1-0.6
		c0,0,0.9,0.5,2,1.1h0c1.9,1.2,4.5,3,4.5,4.3c0,1.8-0.7,3-0.9,3.3l0,0.1C301.4,346.1,309,400,309,400z"/>
	
		<radialGradient id="SVGID_8_" cx="185.1991" cy="363.6389" r="27.8808" gradientTransform="matrix(0.6509 0.1504 -0.388 1.6845 210.5513 -281.563)" gradientUnits="userSpaceOnUse">
		<stop  offset="0" style="stop-color:#3A373B"/>
		<stop  offset="1" style="stop-color:#000000"/>
	</radialGradient>
	<path class="st12" d="M207.9,369c-2.9,13.7-8.5,24.1-12.8,30.9c-9.2,0-18.3,0-27.5,0c-1.4-9.2-2.4-23.5,1.9-39.8
		c5.8-22,21.2-47.4,30.7-45.3C209.5,317,212.6,346.5,207.9,369z"/>
	
		<radialGradient id="SVGID_9_" cx="317.415" cy="349.1562" r="28.0853" gradientTransform="matrix(0.6432 -0.1806 0.4656 1.6646 -87.9601 -164.7932)" gradientUnits="userSpaceOnUse">
		<stop  offset="0" style="stop-color:#3A373B"/>
		<stop  offset="1" style="stop-color:#000000"/>
	</radialGradient>
	<path class="st13" d="M299.2,358.8c5.2,16.7,4.7,31.6,3.5,41.2c-9.4,0-18.7,0-28.1,0c-4.4-6.7-10.1-17-13.4-30.5
		c-5.3-22.1-4-51.8,5.2-54.5C275.7,312.4,292.3,336.9,299.2,358.8z"/>
	<linearGradient id="SVGID_10_" gradientUnits="userSpaceOnUse" x1="204.7154" y1="365.4507" x2="230.4491" y2="365.4507">
		<stop  offset="0" style="stop-color:#8976ED"/>
		<stop  offset="1" style="stop-color:#BB9CEB"/>
	</linearGradient>
	<path class="st14" d="M205.3,400l-0.5-0.1c6-35.5,21.3-65.2,21.4-65.5l0.1-0.1l3.9-3.4l0.4,0.4l-3.8,3.4
		C225.9,336,211.1,365.3,205.3,400z"/>
	
		<linearGradient id="SVGID_11_" gradientUnits="userSpaceOnUse" x1="292.7787" y1="365.4517" x2="318.5145" y2="365.4517" gradientTransform="matrix(-1 0 0 1 557.6286 0)">
		<stop  offset="0" style="stop-color:#8976ED"/>
		<stop  offset="1" style="stop-color:#BB9CEB"/>
	</linearGradient>
	<path class="st15" d="M264.3,400c-5.9-34.8-21.1-64.3-21.8-65.6l-3.4-3.1l0.4-0.4l3.5,3.2c0.2,0.3,15.8,30.3,21.8,65.8L264.3,400z"
		/>
	<linearGradient id="SVGID_12_" gradientUnits="userSpaceOnUse" x1="233.0175" y1="399.9537" x2="233.0175" y2="301.6722">
		<stop  offset="0" style="stop-color:#BFBFFF"/>
		<stop  offset="1" style="stop-color:#5F47AE"/>
	</linearGradient>
	<path class="st16" d="M283.4,307.1c0,1.8-0.7,3-0.9,3.3l0,0.1c-18.3,4.2-32.3,21.3-32.3,21.3c10,19.2,26.7,68.2,26.7,68.2h-19.6
		c-5.4-30.1-18-69.3-18-69.3c-3.1-1.8-9,0.4-9,0.4L211.4,400h-12.2c4.4-28.8,17.3-64.1,17.3-64.1c-12.7-14.8-31.6-26.6-31.6-26.6
		l0,0l-2.2-1.4l1.6-1.2c8.2,7.9,34.5,18.1,35.3,18.4L186,304.6c1.3-1.2,2.8-2.3,2.8-2.3l88.1-0.6c0,0,0.9,0.5,2,1.1l-24.1,13.3
		L283.4,307.1z"/>
	<linearGradient id="SVGID_13_" gradientUnits="userSpaceOnUse" x1="244.44" y1="350.813" x2="244.44" y2="324.0069">
		<stop  offset="0" style="stop-color:#BFBFFF"/>
		<stop  offset="1" style="stop-color:#5F47AE"/>
	</linearGradient>
	<polygon class="st17" points="239.3,330.7 249.6,324 247.1,330.7 245.3,350.8 	"/>
	<linearGradient id="SVGID_14_" gradientUnits="userSpaceOnUse" x1="213.4438" y1="340.9557" x2="213.4438" y2="314.6931">
		<stop  offset="0" style="stop-color:#BFBFFF"/>
		<stop  offset="1" style="stop-color:#5F47AE"/>
	</linearGradient>
	<polygon class="st18" points="230.3,331.1 219.6,325 196.6,314.7 225.8,334 227.6,341 	"/>
	<path class="st19" d="M259.7,124.1c0.1,0.5,0.1,0.7,0.1,0.7c-0.5,2.2-1.2,4.3-1.8,6.2c-2.2,6.2-4.8,10.6-6.9,13.4
		c-1.7,2.4-3,3.5-3,3.5c-16-5-24-20.8-27-28.6c0,0,0-0.1,0-0.1c-0.6-1.5-1-2.7-1.2-3.4c0,0,0,0,0,0c-0.2-0.6-0.3-1-0.3-1
		c0.1-0.1,0.1-0.3,0.2-0.4l0-0.1c0.3-0.6,0.5-1.1,0.8-1.7c2.1-4.6,3.5-8.9,4.4-12.3c0.8-2.9,1.2-5.1,1.4-6.3
		c0.1-0.6,0.1-0.9,0.1-0.9l7.5,4l25.8,13.7c-0.4,2.4-0.5,4.6-0.5,6.5c0,1.4,0,2.6,0.1,3.7c0.1,1.3,0.2,2.3,0.3,3v0
		C259.7,124,259.7,124.1,259.7,124.1z"/>
	<linearGradient id="SVGID_15_" gradientUnits="userSpaceOnUse" x1="240.0369" y1="153.6714" x2="240.0369" y2="114.4403">
		<stop  offset="0" style="stop-color:#C9C0F7"/>
		<stop  offset="1" style="stop-color:#EEE7FA"/>
	</linearGradient>
	<path class="st20" d="M252.6,149.7c-1.5,1.5-3.2,2.8-5.3,3.9c0,0-0.1,0.1-0.1,0.1c0,0-0.1,0-0.2-0.1l0,0c-0.6-0.3-2.5-1.5-5-3.5
		c-6.7-5.1-18-15.3-21.2-29.2c0,0,0,0,0-0.1c-0.4-1.6-0.6-3.3-0.8-5.1c0,0,0,0,0,0c0-0.5-0.1-0.9-0.1-1.4c0,0,2.2,5.3,6.1,10.9
		c4.6,6.7,11.4,14,19.5,14c7.1,0,10.7-4.8,12.5-9.3c0.8-1.9,1.2-3.7,1.5-5.1c0,0,0,0,0,0c0.1-0.4,0.1-0.7,0.2-1v0
		c0-0.2,0-0.3,0.1-0.4c0.1-0.5,0.1-0.8,0.1-0.8S262.6,139.7,252.6,149.7z"/>
	<linearGradient id="SVGID_16_" gradientUnits="userSpaceOnUse" x1="219.8744" y1="134.0173" x2="260.1994" y2="134.0173">
		<stop  offset="0" style="stop-color:#BFBFFF"/>
		<stop  offset="1" style="stop-color:#5F47AE"/>
	</linearGradient>
	<path class="st21" d="M252.6,149.7c-1.5,1.5-3.2,2.8-5.3,3.9h-0.1l-0.2,0l0,0c-0.6-0.3-2.5-1.5-5-3.5c-6.7-5.1-18-15.3-21.2-29.2
		c0,0,0,0,0-0.1c-0.4-1.6-0.6-3.3-0.8-5.1c0,0,0,0,0,0c0-0.5-0.1-0.9-0.1-1.4c0,0,2.2,5.3,6.1,10.9c0,0,4.4,12.2,14.1,18.3
		c4.8,3,8.5,2.6,11.2,0.8c2.7-1.8,4.4-4.9,5.4-7.2c1-2.3,1.4-4.5,1.4-6.1c0-0.4,0-0.7,0-1c0.8-1.9,1.2-3.7,1.5-5.1c0,0,0,0,0,0
		c0.1-0.4,0.1-0.7,0.2-1v0c0-0.2,0-0.3,0.1-0.4c0.1-0.5,0.1-0.8,0.1-0.8S262.6,139.7,252.6,149.7z"/>
	<linearGradient id="SVGID_17_" gradientUnits="userSpaceOnUse" x1="228.5062" y1="310.4188" x2="228.5062" y2="112.7327">
		<stop  offset="0" style="stop-color:#8976ED"/>
		<stop  offset="1" style="stop-color:#BB9CEB"/>
	</linearGradient>
	<path class="st22" d="M314.4,249.6c-0.1,0.1-0.2,0.1-0.2,0.1c-0.9,0.1-3.7-0.5-7.4-3.7l0,0c0,0,0,0,0,0c0,0,0,0,0,0
		c-3.1-2.7-6.8-7.2-10.5-14.6c-7.4-14.8-9.5-24.6-9.8-26.3l0-0.3l-4.3,6.8c-2.9,8.8-8.4,45.1-8.3,46.7c0.1,1.6,4.9,9.2,4.8,10.1
		c0,0,0,0,0,0c-0.1,0.9-2.3,3-2.9,5.3c-0.4,1.5,2.5,6.3,4.6,9.8v0c1.1,1.9,1.9,3.4,1.9,3.9c0,1.7-5.2,9.8-5.2,9.8v4.4l-0.1,0.1
		l-0.2,0.2l-0.2,0.2c-2,1.6-10.4,6.7-36.6,8.1c-31.1,1.7-51.8-8.4-51.8-8.4l1.6-4.3c0,0-1.5-1.2-1.6-1.9c-0.1-0.6,1.1-2.1,1.1-2.1
		s-3.1-1.7-3.1-3.8c0-2.1,6.3-8.5,6-14.1c-0.2-5.5-5-10.4-5.6-13.6c-0.6-3.1,8.1-10.9,8.1-10.9c-7.5-23.8-9-55.7-9-55.7l-1.5-1.7
		c0,0-9,20.5-17.1,30.5c-1,1.2-2,2.4-3,3.5c-2.3,2.5-4.7,4.8-7,6.8c-5.6,4.9-10.7,8.1-12,7.9c-2.1-0.4-10.4-16.9-10-33.8
		c0.2-8,5-17,10-24.3c0.5-0.8,1.1-1.5,1.6-2.3c3.6-4.9,7-8.7,8.6-10.4c0.6-0.7,1-1,1-1s-1.1-3.7-1.9-6.9c0-0.1,0-0.2-0.1-0.2
		c0,0,0-0.1,0-0.1c0-0.1,0-0.1,0-0.1c-0.5-2-0.7-3.7-0.5-4.1c0.7-1.1,4.7-2.4,5.4-3.2c0.7-0.8,3.6-14.9,5.8-16.4
		c2.1-1.5,5.9-2.5,18.4-7.5c0.6-0.2,1.2-0.5,1.9-0.7c14-5.6,27.8-12.3,27.8-12.3l5.3-6.5h2.4l-0.8,1.7l0,0.1
		c0.4,1.7,0.8,3.3,1.3,4.8c0,0,0,0.1,0,0.1c7.3,22.9,25.9,30.3,25.9,30.3c13-9.6,12.7-24.8,12.7-24.8v-2.1l2.4,0.7l1.7,4
		c0,0,2.8,4.4,14,9.3c1.9,0.8,4,1.9,6.1,3.1c10.2,5.8,21.6,14.8,22.4,16.7c0.1,0.2,0.2,0.5,0.3,0.9v0c1.2,4.7,3.7,22.4,6,28.7
		c1.4,3.9,3.7,6.1,5.3,7.2c0,0,0,0,0,0c1.2,0.8,2.1,1.1,2.1,1.1c0.2,1,0.3,1.9,0.5,2.9C325.5,227.7,316.4,248.2,314.4,249.6z"/>
	<linearGradient id="SVGID_18_" gradientUnits="userSpaceOnUse" x1="146.6025" y1="187.2344" x2="194.6658" y2="187.2344">
		<stop  offset="0" style="stop-color:#BFBFFF"/>
		<stop  offset="1" style="stop-color:#5F47AE"/>
	</linearGradient>
	<path class="st23" d="M194.7,192.6l-9.1,3.1l-1.5-1.7c0,0-9,20.5-17.1,30.5c-1,1.2-2,2.4-3,3.5c-2.3,2.5-4.7,4.8-7,6.8l-6.9-29.8
		l-3.5-22.6c3.6-4.9,7-8.7,8.6-10.4c0.6-0.7,1-1,1-1s-1.1-3.7-1.9-6.9c0-0.1,0-0.2-0.1-0.2c0,0,0-0.1,0-0.1c0-0.1,0-0.1,0-0.1
		c-0.5-2-0.7-3.7-0.5-4.1c0.7-1.1,4.7-2.4,5.4-3.2c0.7-0.8,3.6-14.9,5.8-16.4c0,0-1.5,13.5,6.3,30.6l3.8,5.3l11,8.8
		C186,184.5,190.1,190,194.7,192.6z"/>
	<linearGradient id="SVGID_19_" gradientUnits="userSpaceOnUse" x1="145.1159" y1="242.5997" x2="145.1159" y2="150.1571">
		<stop  offset="0" style="stop-color:#8976ED"/>
		<stop  offset="1" style="stop-color:#CEB8F1"/>
	</linearGradient>
	<path class="st24" d="M168.4,217c-1.9,14.5-23.5,25.6-23.5,25.6c-4.8,0-10.2-8.4-15-18.7c-4.9-10.3-5.2-39.9-5.4-41.7
		c-0.3-1.8-3-5.5-3.1-7.1c-0.2-1.6,4.4-4.8,4.4-4.8l0-0.1l0-0.1c-0.5-1-3.1-6.7-2.9-7.8c0.2-1.1,5.3-3.6,5.3-3.6l0.3,5.6
		c0,0,11.9-2.2,15.9-11.4l0.7-2.8l2,1.3v12.1c0,0,0.4,1.9,1,1.9c0.6,0,5.2-2.3,6.2-2c1,0.3,1.9,6.8,3.2,7.6c1.3,0.8,4.7,3.2,5.2,4.4
		c0.2,0.5,0.3,2.4,0.3,4.6c0,2.7,0.1,5.9,0.5,7.6C164.1,190.9,170.4,202.5,168.4,217z"/>
	<linearGradient id="SVGID_20_" gradientUnits="userSpaceOnUse" x1="303.8149" y1="215.9565" x2="365.7422" y2="215.9565">
		<stop  offset="0" style="stop-color:#9583EF"/>
		<stop  offset="1" style="stop-color:#CEB8F1"/>
	</linearGradient>
	<path class="st25" d="M365.3,204.6c-1,1.5-5.8,4.7-7.1,6c-1.3,1.2,0,5.4,0,5.4c-20.4,21.7-41.7,32.6-43.9,33.6
		c-0.1,0.1-0.2,0.1-0.2,0.1c-12.8-8.6-11.7-22.9-7.5-34.8c4.1-11.5,11-20.9,11.4-21.4l0,0c0,0,0,0,0,0c0.2-0.1,3.9-1.6,6.5-1.8
		c0.9-0.1,1.7,0.3,2.4,0.7c1.6,1,2.9,2.5,4.2,1.9c1.9-0.9,6.1-10.9,8.9-11.2c2-0.2,4.8,1.8,6.6,3c0.8,0.5,1.4,0.8,1.7,0.8
		c1-0.3,4.6-4.5,4.9-4.6c0.3-0.1,1.9,1.1,1.9,1.1l-1.1,1.4c1.7,10,7.4,16.8,7.4,16.8l3.8-5.6C365.3,195.9,366.3,203.1,365.3,204.6z"
		/>
	<path class="st26" d="M259.8,123.7c0,0.1,0,0.3-0.1,0.4c-0.1,0.3-0.1,0.6-0.2,0.9c0,0,0,0,0,0c-1.3,4.9-6.6,9.8-13.3,7.4
		c-7.3-2.6-21.2-32.1-21.2-32.1l1.4-6.3l32.9,26.9l0.4,2.5L259.8,123.7z"/>
	<path class="st27" d="M150.1,118.3c0,0-2-11.1-1.1-19.3c0.9-8.2-0.2-17.5-0.2-17.5s-2-0.8-3.4,0c-1.5,0.8-4.9,9.3-3.3,16.1
		c1.5,6.8,0.3,23.2,0.3,23.2H140l-5-6.9l-2.4-0.7c0,0-14,13.2-13.8,21.1l1.8,7l17.2-0.6l11.3-12.9L150.1,118.3z"/>
	<linearGradient id="SVGID_21_" gradientUnits="userSpaceOnUse" x1="124.9719" y1="137.5521" x2="124.9719" y2="113.1778">
		<stop  offset="1.598750e-02" style="stop-color:#FAB297"/>
		<stop  offset="1" style="stop-color:#F77F82"/>
	</linearGradient>
	<path class="st28" d="M132.6,113.2c0,0,0.4,8.8,2.3,16.3c0,0-0.3,3.1-3.9,3.3l-0.9-1c0,0-0.6,3.5-3.8,3.8l-3-3l0.8,2.5
		c0,0-1.1,2.7-4,2.6c0,0-4.8-3.8-5.1-8.7l4.7-4v-3.1l5.6-4l0.1-2.2C125.5,115.6,128.8,113.1,132.6,113.2z"/>
	<linearGradient id="SVGID_22_" gradientUnits="userSpaceOnUse" x1="140.2949" y1="136.975" x2="140.2949" y2="96.6277">
		<stop  offset="0" style="stop-color:#FDE3D1"/>
		<stop  offset="0.9944" style="stop-color:#AF65A8"/>
	</linearGradient>
	<path class="st29" d="M149.2,96.6c0,0-0.8,2.1-2,3c-1.2,0.8-4.7,1.5-4.7,1.5l-0.2,19.7H140l-5-6.9c0,0,2.5,3.9,2.7,6.9l-2,1
		l-1.7-5.9l-0.8,4.2l0.8,5.3c0,0,3-2.6,8.3-2.7l0.8,1.5c0,0-9.7,8.1-11.9,12.8c0,0,4.8-6.1,15.7-12.8l1-3.2l1.4-7.7
		C149.4,113.2,148.1,102,149.2,96.6z"/>
	<linearGradient id="SVGID_23_" gradientUnits="userSpaceOnUse" x1="138.9881" y1="164.4239" x2="138.9881" y2="102.2226">
		<stop  offset="1.598750e-02" style="stop-color:#FAB297"/>
		<stop  offset="1" style="stop-color:#F77F82"/>
	</linearGradient>
	<path class="st30" d="M157.3,130.9c-0.9,2.7-10.3,14-11.4,16.4c-1,2.4-1.7,5.6-1.7,5.6c-4.6,10.1-15.9,11.4-15.9,11.4l-0.5-9.1
		c0,0-6-3.5-7.1-5.4l0,0l-0.1-0.3c-0.3-1.8,0-8.4,0-8.4l10.6-4.3c4.6-5.9,15.7-12.8,15.7-12.8l0.5-3.1c-8-3.9-6.7-15.9-5.3-17.3
		c1.4-1.5,3.8-1.5,3.8-1.5s2.9,9.6,4.8,14.1C152.7,120.8,158.2,128.2,157.3,130.9z"/>
	<path class="st31" d="M125.5,115.6c0,0,1.2,11,4.6,16.2c0,0-4.4-5.5-4.7-13.9L125.5,115.6z"/>
	<path class="st31" d="M119.8,121.8c0,0,1.1,8.8,6.6,13.7c0,0-4.8-2.4-6.6-10.6V121.8z"/>
	<linearGradient id="SVGID_24_" gradientUnits="userSpaceOnUse" x1="127.8831" y1="154.7173" x2="147.4076" y2="154.7173">
		<stop  offset="1.598750e-02" style="stop-color:#C28CCD"/>
		<stop  offset="0.9944" style="stop-color:#AA73B8"/>
	</linearGradient>
	<path class="st32" d="M147.4,145c0,0-11.9,11.6-19.5,10.3l0.5,9.1c0,0,12.5-1.1,16.6-14.3C145,150.2,146.4,146.4,147.4,145z"/>
	<linearGradient id="SVGID_25_" gradientUnits="userSpaceOnUse" x1="367.0187" y1="202.311" x2="367.0187" y2="119.1321">
		<stop  offset="1.598750e-02" style="stop-color:#FAB297"/>
		<stop  offset="1" style="stop-color:#F77F82"/>
	</linearGradient>
	<path class="st33" d="M399.3,160.8c0,0-10.9,20-23.8,26.2h-4.4l-10.1,15.3c0,0-6.5-4.1-7-17.6c0,0,2.3-2.4,2.8-5.1
		c0,0-3.6-2.8-4.6-4.9c-1-2.1-1.3-8.4-2-10.9c-0.7-2.6-6.6-7.9-7.9-8.6s-7.3-1-7.3-1s-0.8-2.2,0-3.2c0.8-1,10.1-4.7,15.2-1.2
		c0,0,0.4,2.6,0.9,4c0.6,1.4,5,6.3,5.7,6.3s3.7-2.5,5-4.5c1.3-1.9,8-16.4,9.6-21.3c0-0.1,0-0.1,0-0.1c0-0.1,0.1-0.2,0.1-0.2
		c0-0.1,0-0.1,0-0.1c0,0,0,0,0-0.1c1.3-4.2,8.5-12.4,12.4-14.6c0,0,1.7-0.4,2.6,1.7c0,0-3.1,8.9-6.4,14.2c-0.5,0.9-1.1,1.9-1.8,3.1
		c0,0,0,0,0,0c-2.8,5.1-5.9,11.8-6.4,12.8l-0.1,0.1l1.7,0.9l4.7-4.5l4.8-4.6l11.1,11.7l-1.1,1.4l-3.5,4.4l1.7,0.3l4.1-4.5
		L399.3,160.8z"/>
	<linearGradient id="SVGID_26_" gradientUnits="userSpaceOnUse" x1="376.829" y1="175.6611" x2="376.829" y2="134.3368">
		<stop  offset="0" style="stop-color:#FDE3D1"/>
		<stop  offset="0.9944" style="stop-color:#AF65A8"/>
	</linearGradient>
	<path class="st34" d="M396.8,165l-3.5,5.1c0,0-19.2-14.8-23.4-16.1s-5.7-0.4-5.7-0.4l-4.3,5.5c0,0,7.9,7,8.6,16.5
		c0,0-2.6-12-11.6-15.6c0.7,0,3.7-2.5,5-4.5c1.3-1.9,8-16.4,9.6-21.3c-0.2,0.8-0.5,2.5,0.2,3.8c0.9,1.8,6.5,0.1,6.8,0c0,0,0,0,0,0
		l-6.4,12.8l-0.1,0.1l1.7,0.9l4.7-4.5l-2.4,5.5l17.1,3l-3.5,4.4l1.7,0.3L396.8,165z"/>
	<linearGradient id="SVGID_27_" gradientUnits="userSpaceOnUse" x1="384.9678" y1="161.3978" x2="384.9678" y2="142.8729">
		<stop  offset="0" style="stop-color:#F99D9F"/>
		<stop  offset="0.984" style="stop-color:#FAB297"/>
	</linearGradient>
	<path class="st35" d="M383.4,142.9c0,0,3.3-0.5,5.5,3.8l-0.5,1.4c0,0,3.2,0.6,6.4,5.9c0,0-2.8,5.1-9.7,7.4c0,0-3.2-0.9-3.8-3.6
		l0.6-1.7l-2.5,1.9c0,0-3,0.9-4.3-3.5L383.4,142.9z"/>
	<linearGradient id="SVGID_28_" gradientUnits="userSpaceOnUse" x1="395.6945" y1="164.2505" x2="395.6945" y2="154.0918">
		<stop  offset="0" style="stop-color:#F99D9F"/>
		<stop  offset="0.984" style="stop-color:#FAB297"/>
	</linearGradient>
	<path class="st36" d="M400.3,159.4c0,0,0.7-3.2-2.7-5.3l-6.6,7.3c0,0,0.2,2.3,3.1,2.9C394.1,164.3,398.6,162.7,400.3,159.4z"/>
	<linearGradient id="SVGID_29_" gradientUnits="userSpaceOnUse" x1="352.318" y1="184.498" x2="371.1804" y2="184.498">
		<stop  offset="1.598750e-02" style="stop-color:#C28CCD"/>
		<stop  offset="0.9944" style="stop-color:#AA73B8"/>
	</linearGradient>
	<path class="st37" d="M352.3,174.7c0,0,7.6,8.5,18.9,12.3l-4.8,7.3l-10.1-12.8l0.6-1.9C356.9,179.6,352.9,176.6,352.3,174.7z"/>
	<path class="st31" d="M388.4,148.1c0,0-3.2,5.3-6.4,7.9l-0.6,1.7c0,0,6.2-4.2,8.5-9C389.8,148.7,389.1,148.2,388.4,148.1z"/>
	<linearGradient id="SVGID_30_" gradientUnits="userSpaceOnUse" x1="326.0677" y1="249.7069" x2="326.0677" y2="156.6019">
		<stop  offset="0" style="stop-color:#BFBFFF"/>
		<stop  offset="1" style="stop-color:#5F47AE"/>
	</linearGradient>
	<path class="st38" d="M365.3,204.6c-1,1.5-5.8,4.7-7.1,6c-1.3,1.2,0,5.4,0,5.4c-20.4,21.7-41.7,32.6-43.9,33.6
		c-0.1,0.1-0.2,0.1-0.2,0.1c-1.7,0.2-9.8-2.1-17.9-18.4c-7.4-14.8-9.5-24.6-9.8-26.3l0-0.3l1.8-2.4l2.7-30.1l1.9,6
		c7.1-8.6,13.8-21.7,13.8-21.7l0.3,0.9v0c1.2,4.7,3.7,22.4,6,28.7c1.4,3.9,3.7,6.1,5.3,7.2l0,0l0,0c-6.5,6-9.8,14.5-11.4,21.4
		c-1.5,6.3-1.6,11-1.6,11s1.8-8.5,7.5-18.7c2.1-3.7,5.1-7,8.1-9.7c2.2-2,4.5-3.8,6.3-5c1.6,1,2.9,2.5,4.2,1.9
		c-8.6,12.9-8.4,38.4-0.3,33.6c8.1-4.9,9.9-15.2,9.9-15.2c-1.9-12.6-1.3-26.8,0.2-29.5c1.9,0.1,7.2,3.8,7.5,3.7
		c-0.5,14.8,6.5,24.7,6.5,24.7l4.6-7.1c-6.7-11.3-6.2-22.2-6.2-22.2c0.3-0.1,1.9,1.1,1.9,1.1l-1.1,1.4c1.7,10,7.4,16.8,7.4,16.8
		l3.8-5.6C365.3,195.9,366.3,203.1,365.3,204.6z"/>
	<linearGradient id="SVGID_31_" gradientUnits="userSpaceOnUse" x1="121.416" y1="230.9489" x2="276.8795" y2="230.9489">
		<stop  offset="0" style="stop-color:#BFBFFF"/>
		<stop  offset="1" style="stop-color:#5F47AE"/>
	</linearGradient>
	<path class="st39" d="M276.9,297.3v4.4l-0.1,0.1l-0.2,0.2l-0.2,0.2c-2,1.6-10.4,6.7-36.6,8.1c-31.1,1.7-51.8-8.4-51.8-8.4l1.6-4.3
		c0,0-1.5-1.2-1.6-1.9c-0.1-0.6,1.1-2.1,1.1-2.1s-3.1-1.7-3.1-3.8c0-1.9,5.1-7.3,5.9-12.5c0.1-0.6,0.1-1.1,0.1-1.6
		c-0.2-5.5-5-10.4-5.6-13.5c0,0,0,0,0,0c-0.6-3.1,8.1-10.9,8.1-10.9c-7.5-23.8-9-55.7-9-55.7l-1.5-1.7c0,0-9,20.5-17.1,30.5
		c-8.1,10-20,18.6-22.1,18.2c-4.8,0-10.2-8.4-15-18.7c-4.9-10.3-5.2-39.9-5.4-41.7c-0.3-1.8-3-5.5-3.1-7.1c5.2,9,13.5,6.3,13.5,6.3
		c-6,0.1-9.1-11.1-9.1-11.1l0-0.1l0-0.1l-2.9-7.8c0.3,0.4,7.2,8.1,13.8,3.3c6.8-4.9,10.3-14.3,10.3-14.3v12.1c0,0,0.4,1.9,1,1.9
		c-0.4,5.6-1.6,12.4-3,19c-3.1,14.5-7.3,28.4-7.3,28.4s11.5-6.3,15.5-22.1c1.9-7.6,2.2-14.2,2.1-19c-0.2-4.1-0.7-6.9-0.9-7.9
		c0-0.1,0-0.2-0.1-0.2c0,0,0-0.1,0-0.1c0,0,0,0,0-0.1l1.1,2.4l2.1,5.2c2.5,20.4-2.6,51-2.6,51c7.4-9.2,8.9-29.5,8.6-34.4
		c-0.1-2.4-0.3-5.3-0.5-7.6c-0.2-2.6-0.3-4.6-0.3-4.6l15.1,9l-2.8-8.8l11,8.8c0,0,9.9,11.9,20,13.3c10.1,1.4,47.4,0.6,47.4,0.6
		s-32.4,2.1-41.8,4.9c-9.4,2.8-11.3,6-11.3,6c6.8,34.8,44.6,46.5,45.8,46.9c-34.3-5.2-50.3-34.4-50.3-34.4s-0.6,16.4,2.1,22.7
		c2.6,6.3,18.2,21.6,38.2,24.8c1.7,0.3,3.3,0.4,5,0.5c16.9,0.8,30.8-7.8,32.3-8.8c0.1-0.1,0.1-0.1,0.1-0.1s0,0,0,0.1
		c-0.5,0.8-7.5,10.6-35.4,11.6c-1.7,0.1-3.3,0.1-4.9,0c0,0,0,0,0,0c-25.9-1.1-39.1-18.4-39.1-18.4s-9.6,5.2-3.5,12.8
		c0.1,0.1,0.1,0.2,0.2,0.2c1.8,2.1,5.8,4.6,10.5,7.2c0.1,0.1,0.3,0.2,0.4,0.2c5.7,3.1,12.3,6.4,17.5,9.1c0,0,0.1,0,0.1,0
		c3.1,1.6,5.7,3.1,7.2,4.1c0,0,0,0,0,0c1.5,1.1,1.7,1.7,0.3,1.9c-7.2,0.8-34.6-5.1-35.7-3.5c-1.1,1.7,1.4,6,1.4,6
		c25.1,12.5,78.9,6.3,80.6,6.1c-45,11.5-81.8-3.1-81.8-3.1l1.2,4.3c0,0,20,7,43.7,7.5c23.6,0.6,38.4-5.5,38.4-5.5L276.9,297.3z"/>
	<linearGradient id="SVGID_32_" gradientUnits="userSpaceOnUse" x1="258.4738" y1="204.8906" x2="288.1895" y2="204.8906">
		<stop  offset="0" style="stop-color:#C2E8FF"/>
		<stop  offset="1" style="stop-color:#5F47AE"/>
	</linearGradient>
	<path class="st40" d="M258.5,198.2c0,0,17.9,1,29.7,4.1l-6.1,9.3C282.1,211.6,272.9,203.5,258.5,198.2z"/>
	<linearGradient id="SVGID_33_" gradientUnits="userSpaceOnUse" x1="231.5217" y1="257.1288" x2="275.1924" y2="257.1288">
		<stop  offset="0" style="stop-color:#C2E8FF"/>
		<stop  offset="1" style="stop-color:#5F47AE"/>
	</linearGradient>
	<path class="st41" d="M275.2,247.6c0,0-11.2,9.3-22.1,13.6c-11,4.3-21.5,4.7-21.5,4.7s6.3,1.9,21.8-0.6
		c15.5-2.5,20.8-10.9,20.8-10.9L275.2,247.6z"/>
	<linearGradient id="SVGID_34_" gradientUnits="userSpaceOnUse" x1="233.5441" y1="276.9082" x2="280.201" y2="276.9082">
		<stop  offset="0" style="stop-color:#C2E8FF"/>
		<stop  offset="1" style="stop-color:#5F47AE"/>
	</linearGradient>
	<path class="st42" d="M280.2,283.5L280.2,283.5c-20.7,5.4-46.9-2.3-46.7-3.2s7.2,0.4,23.3-2.8c15.7-3.1,21.3-8.7,21.7-9.1
		c-0.1,0.9-2.3,3-2.9,5.3C275.2,275.2,278.1,280,280.2,283.5z"/>
	<linearGradient id="SVGID_35_" gradientUnits="userSpaceOnUse" x1="193.39" y1="227.9362" x2="193.39" y2="175.4849">
		<stop  offset="0" style="stop-color:#C2E8FF"/>
		<stop  offset="1" style="stop-color:#5F47AE"/>
	</linearGradient>
	<path class="st43" d="M224.1,201c-17.6,1.8-22.4,6.7-22.4,6.7c-5,0.6-16.1-12.1-16.1-12.1l-1.5-1.7c0,0-9,20.5-17.1,30.5
		c-1,1.2-2,2.4-3,3.5l1.2-2.6c0,0,1.9-0.9,2.4-10.9c0.6-9.9-4.2-24.8-4.2-26.8c0-2-0.7-12.2-0.7-12.2l15.1,9l-2.8-8.8l11,8.8
		c0,0,4.3,6.5,15.2,11.9C211.4,201.5,222.8,201.1,224.1,201z"/>
	<linearGradient id="SVGID_36_" gradientUnits="userSpaceOnUse" x1="197.6056" y1="232.3454" x2="197.6056" y2="192.5855">
		<stop  offset="0" style="stop-color:#C2E8FF"/>
		<stop  offset="1" style="stop-color:#5F47AE"/>
	</linearGradient>
	<path class="st44" d="M184.2,194l10.5-1.4c0,0,4.2,2.8,12.6,6.2l-7,10.4c0,0,2.8,14.8,10.8,23.1c0,0-21.2-11.8-24.2-21.8L184.2,194
		z"/>
	<linearGradient id="SVGID_37_" gradientUnits="userSpaceOnUse" x1="134.8727" y1="181.5191" x2="134.8727" y2="151.4791">
		<stop  offset="0" style="stop-color:#C2E8FF"/>
		<stop  offset="1" style="stop-color:#5F47AE"/>
	</linearGradient>
	<path class="st45" d="M122.8,162.5l3,7.9c0,0,3.1,10.7,9.1,11.1c6.1,0.4,12-17.9,12-17.9v-12.1c0,0-6.5,13.9-13.4,15.5
		C126.5,168.5,122.8,162.5,122.8,162.5z"/>
	<linearGradient id="SVGID_38_" gradientUnits="userSpaceOnUse" x1="159.1408" y1="155.0654" x2="171.2269" y2="155.0654">
		<stop  offset="0" style="stop-color:#C2E8FF"/>
		<stop  offset="1" style="stop-color:#5F47AE"/>
	</linearGradient>
	<path class="st46" d="M159.1,156.2c0,0,5.4,10.9,12.1,14.2c0,0-7.9-19.3-6.3-30.6C165,139.8,162.1,141.6,159.1,156.2z"/>
	<linearGradient id="SVGID_39_" gradientUnits="userSpaceOnUse" x1="290.5256" y1="227.9362" x2="290.5256" y2="172.2569">
		<stop  offset="0" style="stop-color:#BFBFFF"/>
		<stop  offset="1" style="stop-color:#5F47AE"/>
	</linearGradient>
	<path class="st47" d="M290.8,172.3l1.9,6l1.9,49.6c0,0-4.8-9.4-8.2-22.9l1.8-2.7C288.2,202.3,291.1,183.6,290.8,172.3z"/>
	<linearGradient id="SVGID_40_" gradientUnits="userSpaceOnUse" x1="353.0196" y1="215.9609" x2="353.0196" y2="186.8653">
		<stop  offset="0" style="stop-color:#BFBFFF"/>
		<stop  offset="1" style="stop-color:#5F47AE"/>
	</linearGradient>
	<path class="st48" d="M348.4,186.9c0,0-1.1,24.4,9.3,26.5l0.5,2.6C358.2,216,344.8,215.5,348.4,186.9z"/>
	<linearGradient id="SVGID_41_" gradientUnits="userSpaceOnUse" x1="320.0768" y1="214.6609" x2="320.0768" y2="192.4178">
		<stop  offset="0" style="stop-color:#BFBFFF"/>
		<stop  offset="1" style="stop-color:#5F47AE"/>
	</linearGradient>
	<path class="st49" d="M331.2,194.3c0,0-0.4,0.9-4.2-1.9c0,0-13,9.2-18,22.2c0,0,8-12,12.3-13.2c4.3-1.3,5.3,3.5,5.3,3.5
		S328.3,198.2,331.2,194.3z"/>
	<linearGradient id="SVGID_42_" gradientUnits="userSpaceOnUse" x1="128.5951" y1="183.4367" x2="128.5951" y2="175.1764">
		<stop  offset="0" style="stop-color:#C2E8FF"/>
		<stop  offset="1" style="stop-color:#5F47AE"/>
	</linearGradient>
	<path class="st50" d="M121.4,175.2c0,0,5,9.2,14.4,6.3c0,0-5.6,3.8-11.2,0.7C124.6,182.2,121.1,176.2,121.4,175.2z"/>
	<linearGradient id="SVGID_43_" gradientUnits="userSpaceOnUse" x1="150.6237" y1="208.6202" x2="150.6237" y2="163.4765">
		<stop  offset="0" style="stop-color:#BFBFFF"/>
		<stop  offset="1" style="stop-color:#5F47AE"/>
	</linearGradient>
	<path class="st51" d="M154.2,163.5c0,0,6.9,25.8-11.1,45.1c0,0,11.7-6,14.3-19.9C160.1,174.9,154.2,163.5,154.2,163.5z"/>
	<linearGradient id="SVGID_44_" gradientUnits="userSpaceOnUse" x1="266.5733" y1="176.8446" x2="266.5733" y2="142.8729">
		<stop  offset="0" style="stop-color:#C2E8FF"/>
		<stop  offset="1" style="stop-color:#5F47AE"/>
	</linearGradient>
	<path class="st52" d="M277.5,142.9c0,0-0.8,11.6-6.3,20c-5.6,8.3-16.6,14-16.6,14s13.9-5.1,20.2-12.3
		C281.2,157.3,277.5,142.9,277.5,142.9z"/>
	<linearGradient id="SVGID_45_" gradientUnits="userSpaceOnUse" x1="222.1419" y1="172.2523" x2="222.1419" y2="125.3649">
		<stop  offset="0" style="stop-color:#C2E8FF"/>
		<stop  offset="1" style="stop-color:#5F47AE"/>
	</linearGradient>
	<path class="st53" d="M206.7,125.4c0,0,0,9.7,3.1,19.6c3.1,9.9,30.3,27.2,30.3,27.2s-28-11.6-33.4-22.1
		C201.2,139.7,206.7,125.4,206.7,125.4z"/>
	<linearGradient id="SVGID_46_" gradientUnits="userSpaceOnUse" x1="206.3363" y1="180.828" x2="284.5184" y2="180.828">
		<stop  offset="0" style="stop-color:#6F2E90"/>
		<stop  offset="1" style="stop-color:#4F41B4"/>
	</linearGradient>
	<path class="st54" d="M206.3,171.7v15.8c0,0,36.4-0.3,77.2,2.4l0.9-14.3C284.5,175.7,249,171.5,206.3,171.7z"/>
	<path class="st55" d="M213.1,175.3c0-0.3,0.1-0.4,0.4-0.4l7.4,0.2c0.7,0,1.3,0.1,1.9,0.3c0.5,0.2,0.9,0.5,1.2,0.8
		c0.3,0.3,0.5,0.8,0.7,1.3c0.1,0.5,0.2,1,0.2,1.6l-0.1,2c0,0.6-0.1,1.1-0.3,1.6c-0.2,0.5-0.4,0.9-0.7,1.2c-0.3,0.3-0.7,0.6-1.3,0.7
		c-0.5,0.2-1.1,0.2-1.9,0.2l-4-0.1l-0.8-2.3l-0.1,0l-0.1,2.3l-2.8-0.1L213.1,175.3z M215.7,182.3l4.7,0.1c0.5,0,0.9-0.1,1.1-0.3
		c0.2-0.2,0.4-0.6,0.4-1.2l0-1.7c0-0.6-0.1-1-0.3-1.3c-0.2-0.2-0.6-0.3-1.1-0.4l-4.5-0.1c-0.1,0-0.1,0-0.2,0.1c0,0-0.1,0.1-0.1,0.1
		L215.7,182.3z"/>
	<path class="st55" d="M228.7,179.5L228.7,179.5l-0.2,2.9c0,0.1,0.1,0.2,0.2,0.2l8.3,0.3l-0.1,2.6l-10.9-0.3c-0.3,0-0.4-0.1-0.4-0.4
		l0.3-9c0-0.3,0.1-0.4,0.4-0.4l10.6,0.3c0.3,0,0.4,0.1,0.4,0.4l-0.1,2.6l-2.6,0.9l-0.1,0l0-1.3c0-0.1,0-0.2-0.1-0.2l-5.6-0.2
		c-0.1,0-0.1,0-0.1,0.1c0,0,0,0.1,0,0.1l0,1.2l4.6,0.1l-0.1,2l-3.9-0.1L228.7,179.5z"/>
	<path class="st55" d="M247.2,179.4l-0.1,0l0-1.1c0-0.1,0-0.2-0.2-0.2l-5.2-0.2c-0.2,0-0.3,0-0.4,0.1c-0.1,0.1-0.1,0.2-0.1,0.3
		l0,0.2c0,0.2,0,0.3,0.1,0.4c0.1,0.1,0.2,0.1,0.4,0.1l6.1,1c0.4,0.1,0.7,0.2,1,0.3c0.3,0.1,0.5,0.3,0.6,0.5c0.2,0.2,0.3,0.4,0.3,0.7
		c0.1,0.3,0.1,0.6,0.1,1l0,0.8c0,0.4-0.1,0.8-0.2,1.1c-0.1,0.3-0.3,0.6-0.5,0.8c-0.2,0.2-0.5,0.4-0.9,0.5c-0.4,0.1-0.8,0.1-1.4,0.1
		l-8.8-0.3l0.1-2.6l7.8,0.2c0.2,0,0.4,0,0.5-0.1c0.1-0.1,0.1-0.2,0.1-0.4l0-0.3c0-0.2,0-0.3-0.1-0.4c-0.1-0.1-0.2-0.1-0.3-0.1
		l-5.9-0.9c-0.4-0.1-0.7-0.2-1-0.3c-0.3-0.1-0.5-0.3-0.7-0.5c-0.2-0.2-0.3-0.4-0.4-0.7c-0.1-0.3-0.1-0.6-0.1-0.9l0-0.7
		c0-0.7,0.2-1.3,0.6-1.6c0.4-0.4,1-0.6,1.9-0.5l8.7,0.3c0.3,0,0.4,0.2,0.4,0.4l-0.1,2L247.2,179.4z"/>
	<path class="st55" d="M250.9,185.9l0.3-9.9l2.8,0.1l-0.3,9.9L250.9,185.9z"/>
	<path class="st55" d="M264,182.1c0-0.1,0-0.3,0-0.5c0-0.2,0-0.3,0-0.4l0-0.1l2.8,0.1l-0.1,4.8c0,0.3-0.1,0.4-0.3,0.4l-7.4-0.2
		c-0.7,0-1.3-0.1-1.9-0.3c-0.5-0.2-0.9-0.5-1.2-0.8c-0.3-0.3-0.5-0.8-0.7-1.3c-0.1-0.5-0.2-1-0.2-1.6l0.1-2c0-0.6,0.1-1.1,0.3-1.6
		c0.2-0.5,0.4-0.9,0.7-1.2c0.3-0.3,0.7-0.6,1.3-0.7c0.5-0.2,1.1-0.2,1.9-0.2l7.4,0.2c0.3,0,0.4,0.1,0.4,0.4l-0.1,2.1l-2.6,0.9
		l-0.1,0l0-0.9c0-0.1,0-0.1-0.1-0.1l-4.7-0.1c-0.3,0-0.5,0-0.7,0.1c-0.2,0-0.3,0.1-0.5,0.2c-0.1,0.1-0.2,0.3-0.3,0.5
		c-0.1,0.2-0.1,0.5-0.1,0.7l-0.1,1.7c0,0.6,0.1,1,0.3,1.3c0.2,0.2,0.6,0.4,1.1,0.4l4.7,0.1c0.1,0,0.1,0,0.2-0.2L264,182.1z"/>
	<path class="st55" d="M272.6,176.7c0.2,0,0.4,0,0.4,0.1c0.1,0.1,0.2,0.2,0.2,0.3l3.5,7.2c0.1,0.1,0.1,0.2,0.3,0.2l0.1,0
		c0.1,0,0.2-0.1,0.2-0.2l0.2-7.4l2.5,0.1l-0.3,9.5c0,0.3-0.1,0.4-0.4,0.4l-4-0.1c-0.2,0-0.3,0-0.4-0.1c-0.1-0.1-0.2-0.2-0.3-0.3
		l-3.6-7.2c-0.1-0.1-0.1-0.2-0.3-0.2l-0.1,0c-0.1,0-0.2,0.1-0.2,0.2l-0.2,7.4l-2.5-0.1l0.3-9.4c0-0.3,0.1-0.4,0.4-0.4L272.6,176.7z"
		/>
	<linearGradient id="SVGID_47_" gradientUnits="userSpaceOnUse" x1="213.0773" y1="135.6368" x2="263.9562" y2="135.6368">
		<stop  offset="0" style="stop-color:#BFBFFF"/>
		<stop  offset="1" style="stop-color:#5F47AE"/>
	</linearGradient>
	<path class="st56" d="M264,127.5c-0.9,10.2-4,17.4-7.3,22.2c-4.6,6.6-9.5,8.9-9.5,8.9c-4.9-2.2-9.2-4.8-12.9-7.8
		c-15.7-12.6-20.7-30-21.1-31.4c6.6,16,16.3,25.7,23.7,31.2c5.9,4.4,10.3,6.1,10.3,6.1v-5.1c-1.2-0.4-2.3-0.9-3.4-1.5
		c-13-6.6-19.8-20.2-23-29.1c0,0,0,0,0-0.1c-1.7-4.8-2.4-8.1-2.4-8.1h2.4l-0.8,1.7l0,0.1c0.4,1.7,0.8,3.3,1.3,4.8c0,0,0,0.1,0,0.1
		c7.3,22.9,25.9,30.3,25.9,30.3c13-9.6,12.7-24.8,12.7-24.8v-2.1l2.4,0.7L264,127.5z"/>
	<linearGradient id="SVGID_48_" gradientUnits="userSpaceOnUse" x1="343.8726" y1="212.6436" x2="343.8726" y2="183.1497">
		<stop  offset="0" style="stop-color:#BFBFFF"/>
		<stop  offset="1" style="stop-color:#5F47AE"/>
	</linearGradient>
	<path class="st57" d="M340.9,183.1c0,0-3.5,11.5-0.2,29.5c0,0,1.7-22.8,2.9-24.7c1.3-2,4.8-1,4.8-1S342.9,183.8,340.9,183.1z"/>
	<linearGradient id="SVGID_49_" gradientUnits="userSpaceOnUse" x1="302.2529" y1="245.9158" x2="302.2529" y2="156.6019">
		<stop  offset="0" style="stop-color:#BFBFFF"/>
		<stop  offset="1" style="stop-color:#5F47AE"/>
	</linearGradient>
	<path class="st58" d="M306.7,245.9c-3.1-2.7-6.8-7.2-10.5-14.6c-7.4-14.8-9.5-24.6-9.8-26.3l1.7-2.7l2.3-22.7l2.2-1.3
		c0,0,7.8-8.6,13.8-21.7c0.1,0.2,0.2,0.5,0.3,0.9v0c1.2,4.7,3.7,22.4,6,28.7c1.4,3.9,3.7,6.1,5.3,7.2c0,0-13.5,20.1-14.2,34.5
		C303.3,241,306.2,245.3,306.7,245.9z"/>
	<linearGradient id="SVGID_50_" gradientUnits="userSpaceOnUse" x1="206.3902" y1="287.868" x2="206.3902" y2="262.2648">
		<stop  offset="0" style="stop-color:#BFBFFF"/>
		<stop  offset="1" style="stop-color:#5F47AE"/>
	</linearGradient>
	<path class="st59" d="M226.3,287.9c0,0-24.4-4-34.4-10.4c0,0,0,0,0,0c0.1-0.6,0.1-1.1,0.1-1.6c-0.2-5.5-5-10.4-5.6-13.5
		c0.1,0.3,0.8,1.9,4.3,4.9c2.2,1.9,5.5,4.3,10.5,7.2c0.1,0.1,0.3,0.2,0.4,0.2c7,4.2,13.1,7,17.5,9.1c0,0,0.1,0,0.1,0
		C223.1,285.6,225.6,286.8,226.3,287.9C226.3,287.9,226.3,287.9,226.3,287.9z"/>
	<linearGradient id="SVGID_51_" gradientUnits="userSpaceOnUse" x1="256.0428" y1="280.8349" x2="256.0428" y2="268.4012">
		<stop  offset="0" style="stop-color:#BFBFFF"/>
		<stop  offset="1" style="stop-color:#5F47AE"/>
	</linearGradient>
	<path class="st60" d="M278.5,268.4c-0.1,0.9-2.3,3-2.9,5.3c0,0-9,9.5-42.1,6.6c0.2-0.9,7.2,0.4,23.3-2.8
		C272.5,274.3,278.2,268.7,278.5,268.4z"/>
	<path class="st61" d="M284.1,139.9l-21.2,6.9l-6.2,2.9l0,0l-4,0l-5.5,0l-3.4,0.3l-1.8,0.1l-5.1,0.4l-2.6,0.2l-25.4-9.2l-4.5-1.6
		l-20.9-7.6c0.6-0.2,1.2-0.5,1.9-0.7c14-5.6,27.8-12.3,27.8-12.3l5.3-6.5h2.4c2.1-4.6,3.5-8.9,4.4-12.3l1.4-6.3
		c0.1-0.6,0.1-0.9,0.1-0.9l7.5,4l25.2,20.2c0,1.4,0,2.6,0.1,3.7l0.4,2.5c0.1-0.5,0.1-0.8,0.1-0.8l2.4,0.7l1.7,4c0,0,2.8,4.4,14,9.3
		C279.8,137.6,281.9,138.7,284.1,139.9z"/>
	<linearGradient id="SVGID_52_" gradientUnits="userSpaceOnUse" x1="255.4956" y1="121.0195" x2="255.4956" y2="35.9615">
		<stop  offset="1.598750e-02" style="stop-color:#FAB297"/>
		<stop  offset="1" style="stop-color:#F77F82"/>
	</linearGradient>
	<path class="st62" d="M267.9,120.6c0,0-9.9,2.2-20.8-3.1s-20.1-20.9-20.6-24.8c-0.5-3.9,4.2-14.1,4.2-22s-3.9-21.6,2.6-29
		c6.5-7.4,36.5-8.5,46.3,1c0,0,3,7.6,3,11.9c0,1-0.2,2.6-0.5,4.3c-0.1,0.6-0.2,1.3-0.3,2.1c-0.9,5.2-2.1,11.5-1.5,14.3
		c0.2,1,0.5,1.9,0.9,2.7v0c1.2,2.8,3,5,3.3,7.4C284.9,88.6,280.7,110.8,267.9,120.6z"/>
	<linearGradient id="SVGID_53_" gradientUnits="userSpaceOnUse" x1="223.8399" y1="86.6967" x2="223.8399" y2="61.6196">
		<stop  offset="1.598750e-02" style="stop-color:#FAB297"/>
		<stop  offset="1" style="stop-color:#F77F82"/>
	</linearGradient>
	<path class="st63" d="M230.6,68.5c0,0-2.7-6.8-9.5-6.9c0,0-4,1.6-4.6,4.6c0,0,1.5,11,3.1,16.1s7.8,4.4,7.8,4.4
		S232.8,78.5,230.6,68.5z"/>
	<linearGradient id="SVGID_54_" gradientUnits="userSpaceOnUse" x1="267.2971" y1="96.1804" x2="268.3481" y2="90.7082">
		<stop  offset="0" style="stop-color:#D24957"/>
		<stop  offset="1" style="stop-color:#F77070"/>
	</linearGradient>
	<path class="st64" d="M256.6,90.8c0,0,2.3-0.2,3.2,0.6c1,0.7,4.5,4.2,9,5.1c4.5,0.9,7.5-2.9,8.4-3.1c1-0.2,2,1.2,2,1.2
		s-0.4-1.6-2.7-2.3c0,0-0.9,3.6-7.4,2.4c-6.5-1.2-9.3-4.1-9.3-4.1l-0.3-0.6C259.5,89.9,257.7,90.3,256.6,90.8z"/>
	<linearGradient id="SVGID_55_" gradientUnits="userSpaceOnUse" x1="257.8229" y1="91.9914" x2="257.8229" y2="37.1969">
		<stop  offset="0" style="stop-color:#FDE3D1"/>
		<stop  offset="0.9944" style="stop-color:#AF65A8"/>
	</linearGradient>
	<path class="st65" d="M247.1,57.1l0.1-0.7c0,0,6.5-11.4,19.3-11.7c12.8-0.3,15.7,7.7,15.7,7.7l2.4-3.6l-5.4-11l-37.7-0.6l-9.2,7.4
		l-1.2,18.1l4.1,23.9l9.9,5.3l2.8-2.5c-1-8-7-15.3-7-15.3l4.3-3c0,0,11.1,5.4,17.6,3.8c0,0,4.8-14.2,4.6-24.7
		C267.4,50.3,250.9,52.7,247.1,57.1z"/>
	<path class="st66" d="M246.5,58c0,0,0.6-4.1,7.5-5.7c7.7-1.8,14-3.4,14-3.4s-1.4,4.5-3.9,6.2c0,0-8.1-0.3-12.3,0.6
		C247.6,56.6,246.5,58,246.5,58z"/>
	<path class="st66" d="M282.1,52.4c0,0-3.9,3-6.6,10.2c0,0,2.6-3.3,4.9-3.3c1.6,0,1.3,1.6,1.3,1.6S283.4,56.7,282.1,52.4z"/>
	<linearGradient id="SVGID_56_" gradientUnits="userSpaceOnUse" x1="255.1569" y1="69.5518" x2="255.1569" y2="58.6973">
		<stop  offset="0" style="stop-color:#BD4961"/>
		<stop  offset="1" style="stop-color:#E8595D"/>
	</linearGradient>
	<path class="st67" d="M249.1,69.6c0,0,0.4-8.7,8.9-10.9c0,0,3,3.9,3.3,8.3C261.3,67,256.8,66.2,249.1,69.6z"/>
	<linearGradient id="SVGID_57_" gradientUnits="userSpaceOnUse" x1="276.7712" y1="72.9961" x2="276.7712" y2="63.5505">
		<stop  offset="0" style="stop-color:#BD4961"/>
		<stop  offset="1" style="stop-color:#F7696C"/>
	</linearGradient>
	<path class="st68" d="M273.2,73c0,0,0.7-6.9,4.6-9.4c0,0,2.7,2,2.4,7.8C280.3,71.3,277.9,70.5,273.2,73z"/>
	<path class="st69" d="M249.1,69.6c0,0,2.7,3.4,10.4,4c0,0,1.5-2.2,1.3-6.6C260.8,67,253.8,66.3,249.1,69.6z"/>
	<path class="st69" d="M273.2,73v1c0,0,1.2,2.5,5.4,2.9c0,0,1.4-2.1,1.5-5.6C280.1,71.3,277.4,70.6,273.2,73z"/>
	<path class="st70" d="M257.3,66.8c0,0-1.9,2.4-1.8,6.1c0,0,2.6,0.6,4,0.7c0,0,1.7-2.3,1.3-6.6C260.8,67,258.6,66.5,257.3,66.8z"/>
	<path class="st70" d="M277.3,71.4c0,0-1.1,1.2-1.3,4.8c0,0,1.5,0.7,2.7,0.7c0,0,1.5-2.2,1.5-5.6C280.1,71.3,279.1,70.9,277.3,71.4z
		"/>
	<path class="st66" d="M256.6,73.2c0,0-0.7-4.7,2-6.5l2.2,0.3c0,0,0.7,3.7-1.3,6.6C259.5,73.6,257.3,73.3,256.6,73.2z"/>
	<path class="st66" d="M278.2,71.2c0,0-1,2.1-1.5,5.3c0,0,0.8,0.3,1.9,0.4c0,0,1.5-1.8,1.5-5.6C280.1,71.3,279,71,278.2,71.2z"/>
	<path class="st71" d="M249.1,69.6c0,0,5.1-3,13.8-1.3l-1.6-1.2C261.3,67,255.1,65.1,249.1,69.6z"/>
	<path class="st71" d="M273.2,73c0,0,4.1-2.2,8.9-1l-2-1.5C280.1,70.5,276.9,70,273.2,73z"/>
	<path class="st72" d="M254.6,69.6c0,0,1.4-0.3,2.6,1C257.2,70.5,255.5,71,254.6,69.6z"/>
	<path class="st72" d="M275.1,73.6c0,0,2.2-0.4,2.9,0.6C278,74.2,276.9,75,275.1,73.6z"/>
	<path class="st73" d="M249.6,70.1c0,0,4,3.9,10.3,4.9l0.2-2.3l-0.6,1C259.5,73.6,253.4,73.2,249.6,70.1z"/>
	<path class="st73" d="M273.2,74c0,0,0.7,2.5,5.9,3.7l-0.2-1.2l-0.3,0.4C278.7,76.9,275,76.4,273.2,74z"/>
	<path class="st74" d="M262.9,84.2c0,0,1.9-0.4,5.5,0c3.5,0.4,7.5,1.4,9.7,0c0,0-2.9,2.9-5.4,3.3c-2.5,0.4-6.3-1.8-6.3-1.8l-1.7,0
		C264.7,85.8,263.4,85.1,262.9,84.2z"/>
	<path class="st75" d="M264.9,85.8c0,0,0.9-0.6,1.6-0.4c0.7,0.1,1.5,1.2,1.5,1.2S266.4,85.7,264.9,85.8z"/>
	<path class="st76" d="M278,84.2c0.9-0.9-3.9-9.5-6.2-9.8c-2.3-0.3-4.4,9.6-4.4,9.6s3.2,0.4,6.3,0.9C276.8,85.3,278,84.2,278,84.2z"
		/>
	<linearGradient id="SVGID_58_" gradientUnits="userSpaceOnUse" x1="277.6586" y1="78.4923" x2="277.6586" y2="57.2371">
		<stop  offset="0" style="stop-color:#FDE3D1"/>
		<stop  offset="0.9944" style="stop-color:#AF65A8"/>
	</linearGradient>
	<path class="st77" d="M281.5,57.2c-1.3-0.2-5.9,5.4-5.9,5.4s-2.9,9-2.3,11.7c0.6,2.7,7.7,4.1,7.7,4.1l0.3-0.5v0
		c-0.4-0.8-0.7-1.7-0.9-2.7c-0.6-2.8,0.6-9.1,1.5-14.3c0,0,0.3-1.1,0.3-2.1C282.2,58.1,282.1,57.3,281.5,57.2z"/>
	<linearGradient id="SVGID_59_" gradientUnits="userSpaceOnUse" x1="256.6353" y1="122.0892" x2="256.6353" y2="18.935">
		<stop  offset="0" style="stop-color:#202390"/>
		<stop  offset="1" style="stop-color:#115295"/>
	</linearGradient>
	<path class="st78" d="M281.3,94c-1.5-3.1-0.6-4.7-13.3-6.3c-18-2.4-19.5,3.1-22.6,2.3c-0.1,0-0.2-0.1-0.4-0.1
		c-3.3-1.3-11.1-9-11.3-19.3c-0.2-10.8,7-18.4,7-18.4c-2.6-2.2-3.7-8.5-0.8-11.3c2.8-2.7,7.6-2.1,19.4-0.8
		c11.8,1.3,11.8,0.5,11.8,0.5c3.7,1,5.9,4.5,6.5,5.6c0.1,0.2,0.2,0.4,0.2,0.4l1.5-1.4c4,5.7,3.2,12,3.2,12s6.5-13.2,5.7-15
		c-1.3-3.4-5.1-8.4-5.3-8.8l0,0c0,0-1-10-4.2-10s-16.5,3-16.5,3c1.5-3.4,1.3-7.4,1.3-7.4s0,0-0.1,0.1c-4.4,3.9-8.6,4.3-14.6,7.1
		c-3,1.4-4.5,2.7-5.6,4.1l-0.4,0.5l-0.4,0.5c-0.4,0.5-0.8,1.1-1.4,1.6c0,0-0.1,0.1-0.1,0.1c0,0,0,0,0,0c-0.5,0.5-1.1,1.1-1.7,1.6
		c-4,3.2-12.7,5.4-13.7,8.8c-1,3.4,1.3,8.1,2.6,12.9c1.2,4.8,0.7,9,0.7,9s4.1,5.4,2.8,13.2c-1.2,7-3.9,8.2-3.9,8.2
		c-1.9,3.9-1,7.5-1,7.5c3.8,15.3,19.8,24.5,19.8,24.5c14.2,5.3,23.5,3,23.5,3s0,0,0,0c10.3-6.7,13.8-29,14-30
		C283.6,91.8,281.6,94.8,281.3,94z M274.9,108.2c-2.5-0.4-3-6.8-3.8-7.6c-0.8-0.8-5.4-0.5-5.4-0.5s-4.2,4.7-5.8,4.9
		c-1.7,0.1-10.6-3.5-8.6-8.9c1.9-5.4,8.6-6.1,8.6-6.1s3.5,2.9,8.7,3.3c5.2,0.3,7.1-0.6,7.7-0.9c0.6-0.3,4,1.2,3.9,6
		C280.1,101.6,277.4,108.6,274.9,108.2z"/>
	<path class="st79" d="M274.3,76.3c0,0,4.5,5.6,4.1,7.7c-0.5,2.3-5.7,3.5-5.7,3.5s4.2-1.4,5-3.5C277.7,84,276.6,79.7,274.3,76.3z"/>
	<linearGradient id="SVGID_60_" gradientUnits="userSpaceOnUse" x1="283.6838" y1="57.1306" x2="283.6838" y2="33.3341">
		<stop  offset="0" style="stop-color:#FDE3D1"/>
		<stop  offset="0.9944" style="stop-color:#7149BD"/>
	</linearGradient>
	<path class="st80" d="M282.4,57.1c0,0,0.7-6.3-3.2-12c3.2-5.7,3.6-11.8,3.6-11.8l0,0c1.1,2.7,1.7,7.8,1.7,7.8l3.6,0.9
		C288.9,44,282.4,57.1,282.4,57.1z"/>
	<linearGradient id="SVGID_61_" gradientUnits="userSpaceOnUse" x1="251.3102" y1="122.0892" x2="251.3102" y2="18.935">
		<stop  offset="0" style="stop-color:#BFB3D2"/>
		<stop  offset="0.9944" style="stop-color:#7149BD"/>
	</linearGradient>
	<path class="st81" d="M277.5,46.1c-0.6-1.1-2.7-4.6-6.5-5.6c0,0,0,0.7-11.8-0.5c-11.8-1.2-16.6-1.9-19.4,0.8
		c-2.8,2.7-1.8,9.1,0.8,11.3c0,0-7.2,7.6-7,18.4c0.2,10.3,8,18,11.3,19.3l-0.2,1.1c0,0,0.6,23.7,6.3,25.6c5.7,1.9,17.7,0.9,18.8,2
		c1.1,1.1-0.2,2.9-0.3,3c0,0,0,0,0,0s-9.3,2.3-23.5-3c0,0-15.9-9.1-19.8-24.5c0,0-0.9-3.6,1-7.5c0,0,2.7-1.1,3.9-8.2
		c1.4-7.8-2.8-13.2-2.8-13.2s0.6-4.2-0.7-9c-1.3-4.8-3.6-9.5-2.6-12.9c6.7,1,11-2.4,11-2.4s1.2-1.6,6.3-2.5s25.9,1.3,25.9,1.3
		s-2.1-1.7-6.5-2.9c-4.1-1.1-18.3,0.2-19.8,0.3c1.6-0.3,17.6-3,19.5-2.5c1.9,0.6,8.9,3.8,8.9,3.8c-0.6-3.2-6.8-10.9-6.8-10.9
		s-8.8,0.2-14.5,1.4c-5.1,1.1-7.9,3.4-8.5,3.9l1.4-1.6l0.4-0.5l0.4-0.5l2-0.3l10.1-4.1c3.4-1.8,7.7-6.3,8.2-6.8c0,0,0.1-0.1,0.1-0.1
		s0.2,4-1.3,7.4c8.5-1,11.4-0.5,11.4-0.5C277.4,31.3,277.5,46.1,277.5,46.1z"/>
	<linearGradient id="SVGID_62_" gradientUnits="userSpaceOnUse" x1="258.2155" y1="122.0647" x2="258.2155" y2="117.6328">
		<stop  offset="0" style="stop-color:#63596B"/>
		<stop  offset="1" style="stop-color:#8651B6"/>
	</linearGradient>
	<path class="st82" d="M246.2,118.6c0,0,5.2-1.2,13.1-0.9c7.9,0.3,12.4,0.3,10.4,3.9C269.7,121.6,259.9,123.8,246.2,118.6z"/>
	<linearGradient id="SVGID_63_" gradientUnits="userSpaceOnUse" x1="271.1964" y1="26.3384" x2="271.1964" y2="23.0458">
		<stop  offset="0" style="stop-color:#1D63C8"/>
		<stop  offset="1" style="stop-color:#1873BE"/>
	</linearGradient>
	<path class="st83" d="M273.5,25.8c0,0,4.8-1.9,6.7-1.6c0,0-0.7-1-1.5-1.2c-0.8-0.2-16.5,3.3-16.5,3.3S272,25.2,273.5,25.8z"/>
	<linearGradient id="SVGID_64_" gradientUnits="userSpaceOnUse" x1="250.256" y1="37.179" x2="250.256" y2="27.4438">
		<stop  offset="0" style="stop-color:#1D63C8"/>
		<stop  offset="1" style="stop-color:#1873BE"/>
	</linearGradient>
	<path class="st84" d="M263.9,27.6c0,0-0.4,5.2-2,7.1l-19.5,2.5l-5.7-1c0,0,2.2-0.9,4.6-3.8C243.7,29.5,256.4,26.8,263.9,27.6z"/>
	<linearGradient id="SVGID_65_" gradientUnits="userSpaceOnUse" x1="285.4748" y1="42.1145" x2="285.4748" y2="33.3341">
		<stop  offset="0" style="stop-color:#1D63C8"/>
		<stop  offset="1" style="stop-color:#1873BE"/>
	</linearGradient>
	<path class="st85" d="M282.8,33.3c0,0,1.6,5.1,1.7,7.8l3.6,0.9C288.1,42.1,287,38.2,282.8,33.3z"/>
	<linearGradient id="SVGID_66_" gradientUnits="userSpaceOnUse" x1="227.4928" y1="80.7539" x2="216.2635" y2="66.9967">
		<stop  offset="0" style="stop-color:#FDE3D1"/>
		<stop  offset="0.9944" style="stop-color:#9946F4"/>
	</linearGradient>
	<path class="st86" d="M229.8,77.7c0,0-1.4-6.6-4.7-9.8c-3.4-3.3-7.2-2.2-7.2-2.2s1,12.2,2.1,15.2c1.1,3,2.8,3.8,2.8,3.8
		s-2.3-2.1-2.7-6.1s-0.4-9.7,0.5-10.4c0.9-0.7,4.5,2,4.5,2s-1.1,1.4-1.8,5c-0.7,3.6,1.8,6.2,2.8,6.2c0.9-0.1-0.1-4.2,0.1-5.3
		C226.3,74.7,228.4,74.9,229.8,77.7z"/>
	<linearGradient id="SVGID_67_" gradientUnits="userSpaceOnUse" x1="228.6647" y1="78.98" x2="223.138" y2="72.2091">
		<stop  offset="0" style="stop-color:#FDE3D1"/>
		<stop  offset="0.9944" style="stop-color:#9946F4"/>
	</linearGradient>
	<path class="st87" d="M226.5,69.5c0,0-3.7,2.4-3.3,7.4c0.4,4.9,3.2,4.7,3.2,3.7c0-1-0.5-3.7-0.3-5.2c0.3-1.5,2.7-0.8,2.7-0.8
		S227.3,70.6,226.5,69.5z"/>
	<path class="st88" d="M283.7,91.5c0,0-4.6,20.8-14,30.1C269.7,121.6,280.5,117.3,283.7,91.5z"/>
	<path class="st88" d="M278.7,23.1c0,0,2.4,1.9,2.9,8.4c0.5,6.5-2.4,13.7-2.4,13.7s3.6-5.4,4-11.3C283.5,27.9,280.6,23.8,278.7,23.1
		z"/>
	<linearGradient id="SVGID_68_" gradientUnits="userSpaceOnUse" x1="249.6067" y1="38.0497" x2="268.5976" y2="38.0497">
		<stop  offset="0" style="stop-color:#1D63C8"/>
		<stop  offset="1" style="stop-color:#1873BE"/>
	</linearGradient>
	<path class="st89" d="M249.6,36.7c0,0,5.6,1.9,11.6,2.4c6.1,0.5,7.3,0.7,7.3,0.7s-2.4-2.4-7.7-3.1
		C255.7,35.9,249.6,36.7,249.6,36.7z"/>
	<linearGradient id="SVGID_69_" gradientUnits="userSpaceOnUse" x1="276.3926" y1="94.9391" x2="282.1526" y2="94.9391">
		<stop  offset="0" style="stop-color:#1D63C8"/>
		<stop  offset="1" style="stop-color:#1873BE"/>
	</linearGradient>
	<path class="st90" d="M276.4,92c0,0,2.7,0,3.7,3.3c0.8,2.7,1.1,5,1.1,5l0.9-3.7c0,0-1.2-4.6-2.5-5.7c-0.9-0.8-2.5-1.5-3.3-1.3
		L276.4,92z"/>
	<linearGradient id="SVGID_70_" gradientUnits="userSpaceOnUse" x1="269.2813" y1="90.6488" x2="275.4938" y2="90.6488">
		<stop  offset="0" style="stop-color:#1D63C8"/>
		<stop  offset="1" style="stop-color:#1873BE"/>
	</linearGradient>
	<path class="st91" d="M269.3,88.7l0.4,4c0,0,3.2,0.3,5.4-0.6l0.4-2.4C275.5,89.6,271.4,88.5,269.3,88.7z"/>
	<path class="st88" d="M284.1,139.9c0,0,18.9,13.9,21.4,18.6c2.5,4.8,3.5,19.7,6.8,26.2c0,0-2.3-10.6-3.9-18.9
		c-1.6-8.3-1.2-8.4-2.1-10.5C305.4,153.4,291.2,143.5,284.1,139.9z"/>
	<path class="st88" d="M280.7,217.1c0,0-9.1,39.2-8.7,41.8c0.4,2.6,6.3,8,6.6,9.5c0,0-4.5,6.1-4.3,7.4c0.2,1.3,7.9,9.8,7.7,12.5
		c-0.1,0.8-5.1,9-5.1,9s5.7-8.1,5.9-9.4c0.3-1.3-6.9-12.1-7.1-13.3c-0.5-2.9,3.6-5,3.7-6.8c0.1-1.9-5.6-6.5-5.6-9.5
		C273.7,255.2,280.7,217.1,280.7,217.1z"/>
	<path class="st88" d="M282.5,310.4c0,0,19.7,44.8,26.5,89.5C309,400,307.9,356.3,282.5,310.4z"/>
	<path class="st76" d="M157.3,130.9c0,0-5.1-1.1-7.2-5.6c-2.1-4.5-0.7-10.9-0.7-10.9s4,7.7,6,10.3
		C157.4,127.4,157.9,130.4,157.3,130.9z"/>
</g>
<g  class='gr3'>
	<g>
		
			<linearGradient id="SVGID_71_" gradientUnits="userSpaceOnUse" x1="92.5306" y1="256.5311" x2="92.5306" y2="178.1299" gradientTransform="matrix(0.906 -0.4233 0.4233 0.906 -79.2815 34.6936)">
			<stop  offset="0" style="stop-color:#D0BEFF"/>
			<stop  offset="1" style="stop-color:#C3AAFF"/>
		</linearGradient>
		<path class="st92" d="M98.8,163.8c-4.2-7.2-11.6-10.2-11.6-10.2l-2.6,1.2l5.8,10.6c-0.8,4.1-3.6,6.3-3.6,6.3l0,0
			c0,0-3.5,0.7-7.1-1.3l-4.4-11.3l-2.6,1.2c0,0-2.5,7.6,0.4,15.5c0,0,1.1,2.5,1.3,2.8c1,1.2,3.7,2.6,8.9,2.3l17.8,34.1
			c-1.5,2.6-1.7,5.8-0.4,8.6c2.2,4.7,7.7,6.7,12.4,4.5c4.7-2.2,6.7-7.7,4.5-12.4c-1.3-2.9-4-4.7-6.9-5.2l-14.6-35.5
			c3.5-3.7,4.2-6.6,4-8.3C100,166.2,98.8,163.8,98.8,163.8z M113.4,222.5l-4.7,2.2l-4.3-3l0.5-5.2l4.7-2.2l4.3,3L113.4,222.5z"/>
		
			<linearGradient id="SVGID_72_" gradientUnits="userSpaceOnUse" x1="92.5254" y1="259.5899" x2="92.5254" y2="181.1886" gradientTransform="matrix(0.906 -0.4233 0.4233 0.906 -79.2815 34.6936)">
			<stop  offset="0" style="stop-color:#A392E2"/>
			<stop  offset="1" style="stop-color:#614AB3"/>
		</linearGradient>
		<path class="st93" d="M100.1,166.5c-4.2-7.2-11.6-10.2-11.6-10.2l-2.6,1.2l5.8,10.6c-0.8,4.1-3.6,6.3-3.6,6.3l0,0
			c0,0-3.5,0.7-7.1-1.3l-4.4-11.3l-2.6,1.2c0,0-2.5,7.6,0.4,15.5c0,0,4,5.4,10.2,5l17.8,34.1c-1.5,2.6-1.7,5.8-0.4,8.6
			c2.2,4.7,7.7,6.7,12.4,4.5c4.7-2.2,6.7-7.7,4.5-12.4c-1.3-2.9-4-4.7-6.9-5.2l-14.6-35.5C101.6,173.1,100.1,166.5,100.1,166.5z
			 M114.7,225.3l-4.7,2.2l-4.3-3l0.5-5.2l4.7-2.2l4.3,3L114.7,225.3z"/>
		<polygon class="st94" points="72.8,160.3 74.1,163 76.6,161.8 75.3,159.1 		"/>
		<polygon class="st94" points="84.6,154.8 85.9,157.5 88.5,156.3 87.2,153.6 		"/>
		<polygon class="st94" points="108.7,224.7 110,227.5 114.7,225.3 113.4,222.5 		"/>
		
			<linearGradient id="SVGID_73_" gradientUnits="userSpaceOnUse" x1="92.5171" y1="240.0976" x2="92.5171" y2="207.0486" gradientTransform="matrix(0.906 -0.4233 0.4233 0.906 -79.2815 34.6936)">
			<stop  offset="0" style="stop-color:#A392E2"/>
			<stop  offset="1" style="stop-color:#614AB3"/>
		</linearGradient>
		<path class="st95" d="M88.4,186.1l14.4,27.7c3.8,0.2,5.8-2.7,5.8-2.7l-11.7-29C91.6,181.9,88.4,186.1,88.4,186.1z M107.5,211.3
			c-0.4,0.4-1.1,0.8-1.9,1.2c-0.6,0.3-1.3,0.5-2,0.6L89.2,186c0.7-0.6,1.9-1.6,3.5-2.3c1.2-0.5,2.4-0.9,3.6-1.1L107.5,211.3z"/>
		<path class="st94" d="M107.5,211.3l1.1-0.2c0,0-1.6,2.9-5.8,2.7l0.8-0.7C103.6,213.1,105.7,212.9,107.5,211.3z"/>
		
			<linearGradient id="SVGID_74_" gradientUnits="userSpaceOnUse" x1="87.8321" y1="207.7113" x2="97.202" y2="207.7113" gradientTransform="matrix(0.906 -0.4233 0.4233 0.906 -79.2815 34.6936)">
			<stop  offset="0" style="stop-color:#7776DA"/>
			<stop  offset="1" style="stop-color:#8C61A9"/>
		</linearGradient>
		<path class="st96" d="M88.4,186.1l0.8-0.1c0,0,2.5-2.6,7-3.3l0.6-0.5c0,0-1.8-0.3-4.7,1C89.3,184.5,88.4,186.1,88.4,186.1z"/>
		
			<linearGradient id="SVGID_75_" gradientUnits="userSpaceOnUse" x1="92.5196" y1="209.8919" x2="92.5196" y2="204.2141" gradientTransform="matrix(0.906 -0.4233 0.4233 0.906 -79.2815 34.6936)">
			<stop  offset="0" style="stop-color:#FFFFFF"/>
			<stop  offset="1" style="stop-color:#8C61A9"/>
		</linearGradient>
		<path class="st97" d="M84.6,183.5c0,0,6.9-1.2,12.8-6l1.9,4.5c0,0-2.1-2.1-6.8-0.2c-5.4,2.2-5.2,6.6-5.2,6.6L84.6,183.5z"/>
		
			<linearGradient id="SVGID_76_" gradientUnits="userSpaceOnUse" x1="97.461" y1="243.4692" x2="97.461" y2="207.0348" gradientTransform="matrix(0.906 -0.4233 0.4233 0.906 -79.2815 34.6936)">
			<stop  offset="0" style="stop-color:#000000"/>
			<stop  offset="1" style="stop-color:#FFFFFF"/>
		</linearGradient>
		<path class="st98" d="M99.3,182.1c-1.3-1-2.8-1-2.8-1l13.9,33.7l1.7-1.7L99.3,182.1z"/>
		<path class="st72" d="M99.3,182.1c0,0-1.5,4.5,2.7,6.6L99.3,182.1z"/>
	</g>
</g>
<g class='gr4'>
	<g>
		<path class="st99" d="M315,107.6l3.5,101.1c0.1,4,3.4,7.2,7.4,7.2h173.9c4,0,7.3-3.2,7.4-7.3l2.4-102.3c0.1-4.2-3.3-7.7-7.5-7.6
			l-179.9,1.2C318.1,99.9,314.8,103.4,315,107.6z"/>
		<path class="st1" d="M499.9,216.2H325.9c-4.2,0-7.6-3.3-7.7-7.5l-3.5-101.1c-0.1-2.1,0.7-4.1,2.1-5.6c1.5-1.5,3.4-2.4,5.5-2.4
			l179.9-1.2c2.1,0,4.1,0.8,5.6,2.3c1.5,1.5,2.3,3.5,2.2,5.6l-2.4,102.3C507.5,212.9,504.1,216.2,499.9,216.2z M502.3,99
			C502.3,99,502.3,99,502.3,99l-179.9,1.2c-2,0-3.8,0.8-5.1,2.2c-1.4,1.4-2.1,3.3-2,5.2l3.5,101.1c0.1,3.9,3.3,6.9,7.2,6.9h173.9
			c3.9,0,7.1-3.1,7.2-7l2.4-102.3c0-2-0.7-3.8-2.1-5.2C506,99.7,504.2,99,502.3,99z"/>
		<linearGradient id="SVGID_77_" gradientUnits="userSpaceOnUse" x1="315.1056" y1="105.7439" x2="509.843" y2="105.7439">
			<stop  offset="0" style="stop-color:#8651B6"/>
			<stop  offset="1" style="stop-color:#9EB3FF"/>
		</linearGradient>
		<path class="st100" d="M315.2,112.7h194.3l0.3-5.3c0.3-4.7-3.5-8.7-8.2-8.6l-179.8,1.4c-3.8,0-6.8,3.1-6.7,6.9L315.2,112.7z"/>
		<linearGradient id="SVGID_78_" gradientUnits="userSpaceOnUse" x1="354.72" y1="179.4174" x2="354.72" y2="120.5849">
			<stop  offset="0" style="stop-color:#C2E8FF"/>
			<stop  offset="1" style="stop-color:#8651B6"/>
		</linearGradient>
		<polygon class="st101" points="325,120.9 325,179.4 384.5,179.4 384.5,120.6 		"/>
		<linearGradient id="SVGID_79_" gradientUnits="userSpaceOnUse" x1="454.8708" y1="150.7338" x2="454.8708" y2="124.8192">
			<stop  offset="0" style="stop-color:#C2E8FF"/>
			<stop  offset="1" style="stop-color:#8651B6"/>
		</linearGradient>
		<rect x="441.9" y="124.8" class="st102" width="25.9" height="25.9"/>
		<linearGradient id="SVGID_80_" gradientUnits="userSpaceOnUse" x1="485.3954" y1="150.7338" x2="485.3954" y2="124.8192">
			<stop  offset="0" style="stop-color:#C2E8FF"/>
			<stop  offset="1" style="stop-color:#8651B6"/>
		</linearGradient>
		<rect x="472.5" y="124.8" class="st103" width="25.9" height="25.9"/>
		<linearGradient id="SVGID_81_" gradientUnits="userSpaceOnUse" x1="423.8362" y1="150.7338" x2="423.8362" y2="124.8192">
			<stop  offset="0" style="stop-color:#C2E8FF"/>
			<stop  offset="1" style="stop-color:#8651B6"/>
		</linearGradient>
		<rect x="410.9" y="124.8" class="st104" width="25.9" height="25.9"/>
		<rect x="432.2" y="165.8" class="st105" width="66.2" height="6.2"/>
		<rect x="415.6" y="175.3" class="st105" width="82.7" height="1.9"/>
		<rect x="416.4" y="154" class="st105" width="15.8" height="1.9"/>
		<rect x="447" y="154" class="st105" width="15.8" height="1.9"/>
		<rect x="477.5" y="154" class="st105" width="15.8" height="1.9"/>
		<rect x="410.9" y="178.4" class="st105" width="26.6" height="1.9"/>
		<rect x="415.6" y="181.5" class="st105" width="82.7" height="1.9"/>
		<rect x="410.9" y="184.6" class="st105" width="87.4" height="1.9"/>
		<rect x="410.9" y="187.7" class="st105" width="87.4" height="1.9"/>
		<rect x="415.6" y="200.1" class="st105" width="82.7" height="1.9"/>
		<rect x="410.9" y="203.2" class="st105" width="87.4" height="1.9"/>
		<rect x="410.9" y="206.3" class="st105" width="87.4" height="1.9"/>
		<rect x="410.9" y="190.8" class="st105" width="83.9" height="1.9"/>
		<rect x="415.6" y="193.8" class="st105" width="82.7" height="1.9"/>
		<rect x="410.9" y="196.9" class="st105" width="70.8" height="1.9"/>
		<polygon class="st72" points="322,104.8 323.3,102.9 329.9,108.8 328.9,110.2 		"/>
		<polygon class="st72" points="330.1,104.8 328.9,102.9 322.2,108.8 323.2,110.2 		"/>
		<rect x="444.9" y="104.2" class="st72" width="59.9" height="3"/>
	</g>
	<g>
		<linearGradient id="SVGID_82_" gradientUnits="userSpaceOnUse" x1="145.5885" y1="87.0605" x2="145.5885" y2="59.9348">
			<stop  offset="0" style="stop-color:#C71DDF"/>
			<stop  offset="1" style="stop-color:#F551AD"/>
		</linearGradient>
		<polygon class="st106" points="129.8,60.8 129.8,86.8 160.9,87.1 161.3,59.9 		"/>
		<linearGradient id="SVGID_83_" gradientUnits="userSpaceOnUse" x1="162.1411" y1="87.0605" x2="162.1411" y2="59.9348">
			<stop  offset="0" style="stop-color:#8927E8"/>
			<stop  offset="1" style="stop-color:#F3006C"/>
		</linearGradient>
		<polygon class="st107" points="161.3,59.9 163.4,63.4 162.4,87 160.9,87.1 		"/>
		<polygon class="st72" points="135.4,69.6 138.3,65.4 153.8,78.4 151.4,81.6 		"/>
		<polygon class="st72" points="154.2,69.6 151.3,65.4 135.8,78.4 138.2,81.6 		"/>
	</g>
	<g>
		<linearGradient id="SVGID_84_" gradientUnits="userSpaceOnUse" x1="140.8787" y1="372.8081" x2="155.5446" y2="256.0367">
			<stop  offset="0" style="stop-color:#1068FF"/>
			<stop  offset="1" style="stop-color:#2D2690"/>
		</linearGradient>
		<path class="st108" d="M202.3,367.1H96c-4.7,0-8.6-3.8-8.7-8.5l-2-87.4c-0.1-4.9,3.8-8.9,8.7-8.9h110.7c4.9,0,8.8,4.1,8.7,9
			l-2.4,87.4C210.9,363.3,207.1,367.1,202.3,367.1z"/>
		<path class="st109" d="M202.3,367.4H96c-4.8,0-8.9-3.9-9-8.8l-2-87.4c-0.1-2.4,0.9-4.7,2.6-6.5c1.7-1.7,4-2.7,6.4-2.7h110.7
			c2.4,0,4.7,1,6.4,2.7c1.7,1.8,2.6,4.1,2.5,6.5l-2.4,87.4C211.2,363.5,207.2,367.4,202.3,367.4z M94,262.6c-2.3,0-4.4,0.9-6,2.5
			c-1.6,1.6-2.5,3.8-2.4,6.1l2,87.4c0.1,4.6,3.9,8.3,8.4,8.3h106.3c4.6,0,8.3-3.6,8.4-8.2l2.4-87.4c0.1-2.3-0.8-4.5-2.4-6.1
			c-1.6-1.6-3.7-2.6-6-2.6H94z"/>
		<rect x="114" y="280.2" class="st72" width="55.9" height="2.4"/>
		<rect x="114" y="286" class="st72" width="28" height="2.4"/>
		<rect x="114" y="290.9" class="st72" width="28" height="2.4"/>
		<rect x="145.1" y="290.9" class="st72" width="22.2" height="2.4"/>
		<rect x="114" y="295.7" class="st72" width="45.1" height="2.4"/>
		<rect x="114" y="300.6" class="st72" width="16" height="2.4"/>
		<rect x="133.3" y="315.2" class="st72" width="27.8" height="2.4"/>
		<rect x="114" y="305.5" class="st72" width="50.3" height="2.4"/>
		<rect x="114" y="310.3" class="st72" width="38.7" height="2.4"/>
		<rect x="114" y="315.2" class="st72" width="18.2" height="2.4"/>
		<rect x="114" y="320.1" class="st72" width="28" height="2.4"/>
		<rect x="114" y="325" class="st72" width="8" height="2.4"/>
		<rect x="125.3" y="325" class="st72" width="29.1" height="2.4"/>
		<rect x="133.3" y="329.7" class="st72" width="27.8" height="2.4"/>
		<rect x="114" y="329.7" class="st72" width="18.2" height="2.4"/>
		<rect x="114" y="334.6" class="st72" width="28" height="2.4"/>
		<rect x="114" y="339.4" class="st72" width="8" height="2.4"/>
		<rect x="125.3" y="339.4" class="st72" width="29.1" height="2.4"/>
	</g>
</g>
<g class='gr5'>
	<g>
		<linearGradient id="SVGID_85_" gradientUnits="userSpaceOnUse" x1="432.1714" y1="343.571" x2="432.1714" y2="279.2609">
			<stop  offset="0" style="stop-color:#C600DF"/>
			<stop  offset="1" style="stop-color:#F54EFA"/>
		</linearGradient>
		<path class="st110" d="M465.8,343.6h-67.1c-5.4,0-9.8-4.3-10-9.7l-1.5-44.2c-0.2-5.7,4.3-10.4,10-10.4h70c5.7,0,10.2,4.7,10,10.3
			l-1.3,44.2C475.7,339.3,471.2,343.6,465.8,343.6z"/>
		<path class="st111" d="M465.8,343.8h-67.1c-5.6,0-10.1-4.4-10.3-10l-1.5-44.2c-0.1-2.8,0.9-5.5,2.9-7.5c2-2,4.6-3.1,7.4-3.1h70
			c2.8,0,5.4,1.1,7.4,3.1c2,2,3,4.7,2.9,7.5l-1.4,44.2C475.9,339.5,471.4,343.8,465.8,343.8z M397.2,279.5c-2.7,0-5.2,1.1-7,3
			c-1.9,1.9-2.8,4.4-2.7,7.1l1.5,44.2c0.2,5.3,4.5,9.4,9.7,9.4h67.1c5.3,0,9.6-4.2,9.7-9.5l1.4-44.2c0.1-2.7-0.9-5.2-2.7-7.1
			c-1.9-1.9-4.3-3-7-3H397.2z"/>
		<rect x="400.6" y="286.4" class="st105" width="61.5" height="36.6"/>
		<polygon class="st72" points="425.9,295.5 425.9,313.9 441.6,303.8 		"/>
		<rect x="400.6" y="329.7" class="st105" width="61.5" height="3.3"/>
		<rect x="400.6" y="329.7" class="st72" width="15.9" height="3.3"/>
	</g>
	<g>
		<linearGradient id="SVGID_86_" gradientUnits="userSpaceOnUse" x1="77.8105" y1="270.8044" x2="77.8105" y2="219.3968">
			<stop  offset="0" style="stop-color:#C600DF"/>
			<stop  offset="1" style="stop-color:#F54EFA"/>
		</linearGradient>
		<path class="st112" d="M104.7,270.8H51c-4.3,0-7.9-3.4-8-7.8l-1.2-35.4c-0.2-4.5,3.5-8.3,8-8.3h55.9c4.5,0,8.1,3.7,8,8.3
			l-1.1,35.4C112.6,267.4,109,270.8,104.7,270.8z"/>
		<path class="st111" d="M104.7,271.1H51c-4.5,0-8.1-3.5-8.3-8l-1.2-35.4c-0.1-2.3,0.7-4.4,2.3-6c1.6-1.6,3.7-2.5,6-2.5h55.9
			c2.3,0,4.4,0.9,5.9,2.5c1.6,1.6,2.4,3.8,2.3,6L113,263C112.8,267.5,109.2,271.1,104.7,271.1z M49.8,219.7c-2.1,0-4.1,0.8-5.6,2.4
			c-1.5,1.5-2.2,3.5-2.2,5.6l1.2,35.4c0.1,4.2,3.5,7.5,7.7,7.5h53.7c4.2,0,7.6-3.3,7.7-7.5l1.1-35.4c0.1-2.1-0.7-4.1-2.2-5.6
			c-1.5-1.5-3.4-2.4-5.6-2.4H49.8z"/>
		<polygon class="st72" points="65.3,232.1 52.1,247.5 65.6,258.9 65.6,253 57.8,246.2 65,238 		"/>
		<polygon class="st72" points="88.6,232.8 101.8,248.2 88.4,259.6 88.4,253.7 96.2,246.9 87.5,237.7 		"/>
		<polygon class="st72" points="68.2,258.9 79.8,233.5 85.2,233.5 72.1,258.9 		"/>
	</g>
</g>
<g class='gr6'>
	<g>
		<linearGradient id="SVGID_87_" gradientUnits="userSpaceOnUse" x1="381.6994" y1="49.0562" x2="394.1779" y2="2.7133">
			<stop  offset="0" style="stop-color:#207BB5"/>
			<stop  offset="1" style="stop-color:#26B2E2"/>
		</linearGradient>
		<polygon class="st113" points="366.2,44.9 364.6,7.8 413.1,7.8 411.1,44.8 		"/>
		<linearGradient id="SVGID_88_" gradientUnits="userSpaceOnUse" x1="360.2775" y1="43.7168" x2="369.5869" y2="9.1432">
			<stop  offset="0" style="stop-color:#153F90"/>
			<stop  offset="1" style="stop-color:#156ACB"/>
		</linearGradient>
		<polygon class="st114" points="364.6,7.8 363.1,10 364.6,44.9 366.2,44.9 		"/>
		<polygon class="st72" points="380.7,15.2 373.1,14.4 374.1,39.8 380.7,39.1 380.7,36.5 376.9,36.6 376.4,17 380.7,17.1 		"/>
		<polygon class="st72" points="396.3,15.2 403.9,14.4 402.8,39.8 396.3,39.1 396.3,36.5 400.1,36.6 400.5,17 396.3,17.1 		"/>
	</g>
	<g>
		
			<linearGradient id="SVGID_89_" gradientUnits="userSpaceOnUse" x1="95.275" y1="70.977" x2="103.7819" y2="39.384" gradientTransform="matrix(-1 0 0 1 116.6559 0)">
			<stop  offset="0" style="stop-color:#207BB5"/>
			<stop  offset="1" style="stop-color:#26B2E2"/>
		</linearGradient>
		<polygon class="st115" points="32,68.1 33,42.9 0,42.9 1.4,68.1 		"/>
		
			<linearGradient id="SVGID_90_" gradientUnits="userSpaceOnUse" x1="80.6712" y1="67.337" x2="87.0176" y2="43.7674" gradientTransform="matrix(-1 0 0 1 116.6559 0)">
			<stop  offset="0" style="stop-color:#153F90"/>
			<stop  offset="1" style="stop-color:#156ACB"/>
		</linearGradient>
		<polygon class="st116" points="33,42.9 34,44.3 33,68.1 32,68.1 		"/>
		<path class="st72" d="M20.3,47.9c0,0,3.6-0.1,4.3,0.2c0.6,0.3-0.2,6.2-0.2,6.2l1.4,1.3l-1.3,1.3c0,0,0.1,6-0.8,6.5
			c-0.9,0.5-3.8,0-3.8,0v-1.5c0,0,2.4,0.1,2.8-0.2c0.4-0.3,0.4-5.6,0.4-5.6l0.6-0.7l-0.6-0.8c0,0,0.1-3.7,0-4.8
			c0-0.7-2.8-0.7-2.8-0.7V47.9z"/>
		<path class="st72" d="M12,47.9c0,0-3.6-0.1-4.3,0.2s0.2,6.2,0.2,6.2l-1.4,1.3l1.3,1.3c0,0-0.1,6,0.8,6.5s3.8,0,3.8,0v-1.5
			c0,0-2.4,0.1-2.8-0.2c-0.4-0.3-0.4-5.6-0.4-5.6l-0.6-0.7l0.6-0.8c0,0-0.1-3.7,0-4.8c0-0.7,2.8-0.7,2.8-0.7V47.9z"/>
	</g>
</g>
<g class='gr3'>
	
		<linearGradient id="SVGID_91_" gradientUnits="userSpaceOnUse" x1="368.0701" y1="263.9716" x2="362.5907" y2="216.9418" gradientTransform="matrix(0.9656 0.26 -0.26 0.9656 62.0853 -42.981)">
		<stop  offset="0" style="stop-color:#153F90"/>
		<stop  offset="1" style="stop-color:#156ACB"/>
	</linearGradient>
	<path class="st117" d="M355.6,274.8l-3.2,9.2C354.1,278.9,356.7,275.6,355.6,274.8z M352.4,284l-3.2,9.2
		C350,293,350.6,289.1,352.4,284z M355.6,274.8l-3.2,9.2C354.1,278.9,356.7,275.6,355.6,274.8z M352.4,284l-3.2,9.2
		C350,293,350.6,289.1,352.4,284z M361.6,292l3.1,1.8l3.4-9.2l-3.6-0.6c0.1-0.3,0.1-0.7,0.2-1c0.3-1.6,0.4-3.1,0.3-4.6l3.8-2.4
		l-1.7-8.1l-3.6,3.5c-0.5-1-1.1-1.9-1.8-2.7c-0.2-0.2-0.4-0.4-0.6-0.6l2.2-5.1l-5.9-1.9l0,0l-1.4,5.2c-1.3,0-2.7,0.3-4,0.9l-0.6-4.9
		l-6.5,4.9l1.5,4.3c-1.2,1.3-2.2,2.9-3.2,4.6l-3.1-1.8l-3.4,9.2l3.6,0.6c-0.4,1.9-0.5,3.8-0.5,5.6l-3.8,2.4l1.7,8.1l3.6-3.5
		c0.6,1.3,1.5,2.4,2.5,3.3l-2.2,5.1l5.8,2.3l0.9-3.3l0.6-2.2c1.3,0,2.7-0.3,4-0.9l0.6,4.9l6.5-4.9l-1.5-4.3c0.9-1.1,1.8-2.2,2.5-3.5
		C361.2,292.7,361.4,292.4,361.6,292z M352.4,284c-1.8,5.1,0,10.3-3.2,9.2c-3.2-1.1-4.4-6.2-2.6-11.2c1.8-5.1,5.8-8.3,9-7.2
		C358.8,275.9,354.1,278.9,352.4,284z M355.6,274.8l-3.2,9.2C354.1,278.9,356.7,275.6,355.6,274.8z M352.4,284l-3.2,9.2
		C350,293,350.6,289.1,352.4,284z"/>
	
		<linearGradient id="SVGID_92_" gradientUnits="userSpaceOnUse" x1="362.7587" y1="264.1487" x2="362.7587" y2="215.9567" gradientTransform="matrix(0.9656 0.26 -0.26 0.9656 62.0853 -42.981)">
		<stop  offset="0" style="stop-color:#153F90"/>
		<stop  offset="1" style="stop-color:#156ACB"/>
	</linearGradient>
	<path class="st118" d="M364.7,293.8l3.4-9.2l-3.4-1.6l-0.6-0.3l0.4-5.1l3.8-1.9l-1.3-7.9l-8.3-2.7l1.5,3.7l2.9-5.9l-5.9-1.9
		l-2.4-0.8l-5.8-2.3l-1.1,4l-5-2.4l-6.5,4.9l2,5.3l-6.1,16.8l-3,10.9l5.7,0.6l-1.9,4.3l5.8,2.3l8.3,2.7l-1.3-2.7l-0.8-1.6l3.1,1
		l5.2,1.7l6.5-4.9l-4-4.7l5.1-3.1L364.7,293.8z M346.5,282c1.8-5.1,5.8-8.3,9-7.2l-3.2,9.2l-3.2,9.2
		C345.9,292.1,344.7,287,346.5,282z"/>
	
		<linearGradient id="SVGID_93_" gradientUnits="userSpaceOnUse" x1="323.7878" y1="281.7808" x2="320.2435" y2="251.3606" gradientTransform="matrix(0.9438 0.3306 -0.5202 1.4851 178.8069 -221.0373)">
		<stop  offset="0" style="stop-color:#207BB5"/>
		<stop  offset="1" style="stop-color:#26B2E2"/>
	</linearGradient>
	<path class="st119" d="M356.4,291l3.4-9.2l-3.6-0.6c0.4-1.9,0.5-3.8,0.5-5.6l3.8-2.4l-1.7-8.1l-3.6,3.5c-0.6-1.3-1.5-2.4-2.5-3.3
		l2.2-5.1l-5.8-2.3l-1.5,5.5c-1.3,0-2.7,0.3-4,0.9l-0.6-4.9l-6.5,4.9l1.5,4.3c-1.2,1.3-2.2,2.9-3.2,4.6l-3.1-1.8l-3.4,9.2l3.6,0.6
		c-0.4,1.9-0.5,3.8-0.5,5.6l-3.8,2.4l1.7,8.1l3.6-3.5c0.6,1.3,1.5,2.4,2.5,3.3l-2.2,5.1l5.8,2.3l1.5-5.5c1.3,0,2.7-0.3,4-0.9
		l0.6,4.9l6.5-4.9l-1.5-4.3c1.2-1.3,2.2-2.9,3.2-4.6L356.4,291z M340.8,290.5c-3.2-1.1-4.4-6.2-2.6-11.2c1.8-5.1,5.8-8.3,9-7.1
		c3.2,1.1,4.4,6.2,2.6,11.2C348.1,288.4,344.1,291.6,340.8,290.5z"/>
	<polygon class="st120" points="368.8,276 360.5,273.3 356.7,275.6 365,278.3 	"/>
	<polygon class="st121" points="360,300.9 351.7,298.2 350.2,293.9 358.5,296.6 	"/>
	<polygon class="st120" points="352.6,265.3 357.2,266.6 358.7,265.2 361.8,266.1 363.2,262.9 354.9,260.2 	"/>
	<path class="st120" d="M340.6,299.2l4.3,1.8l-0.4-2.7C344.5,298.2,342.2,299.5,340.6,299.2z"/>
	<path class="st120" d="M341.2,274.3l7.3,3.9c0,0,1.1-1.4,1.9-2C350.4,276.1,348.5,268.1,341.2,274.3z"/>
</g>
<g class='gr2'>
	<path class="st122" d="M341.6,167.7c-9.3,0-16.9-7.6-16.9-16.9s7.6-16.9,16.9-16.9c9.3,0,16.9,7.6,16.9,16.9S351,167.7,341.6,167.7
		z M341.6,134.9c-8.7,0-15.8,7.1-15.8,15.8c0,8.7,7.1,15.8,15.8,15.8c8.7,0,15.8-7.1,15.8-15.8C357.5,142,350.4,134.9,341.6,134.9z"
		/>
	<ellipse class="st72" cx="341.6" cy="150.7" rx="9.2" ry="9.2"/>
	<path class="st122" d="M384.5,137.5c-9.3,0-16.9-7.6-16.9-16.9s7.6-16.9,16.9-16.9c9.3,0,16.9,7.6,16.9,16.9
		S393.8,137.5,384.5,137.5z M384.5,104.7c-8.7,0-15.8,7.1-15.8,15.8c0,8.7,7.1,15.8,15.8,15.8c8.7,0,15.8-7.1,15.8-15.8
		C400.3,111.8,393.2,104.7,384.5,104.7z"/>
	<ellipse class="st72" cx="384.5" cy="120.6" rx="8.7" ry="8.7"/>
</g>
</svg>
